<svg id="svg" version="1.1" xmlns="http://www.w3.org/2000/svg" xmlns:xlink="http://www.w3.org/1999/xlink" width="400" height="400" viewBox="0, 0, 400,400"><g id="svgg"><path id="path0" d="M243.541 122.193 C 243.409 122.324,242.333 122.614,241.151 122.836 C 239.968 123.058,238.460 123.344,237.800 123.470 C 237.140 123.597,236.420 123.832,236.200 123.992 C 235.980 124.152,234.945 124.529,233.900 124.829 C 232.855 125.129,232.000 125.515,232.000 125.687 C 232.000 125.859,231.735 126.000,231.411 126.000 C 231.087 126.000,230.052 126.458,229.111 127.018 C 228.170 127.577,227.085 128.138,226.700 128.264 C 226.315 128.390,226.000 128.652,226.000 128.847 C 226.000 129.041,225.792 129.200,225.537 129.200 C 224.195 129.200,216.584 136.001,213.675 139.800 C 212.664 141.120,211.739 142.290,211.619 142.400 C 211.231 142.754,209.958 144.978,209.729 145.700 C 209.607 146.085,209.348 146.400,209.153 146.400 C 208.959 146.400,208.800 146.652,208.800 146.959 C 208.800 147.267,208.260 148.545,207.600 149.800 C 206.940 151.055,206.400 152.412,206.400 152.817 C 206.400 153.222,206.220 153.664,206.000 153.800 C 205.780 153.936,205.600 154.476,205.600 155.000 C 205.600 155.524,205.440 156.052,205.244 156.173 C 204.046 156.913,203.121 168.395,203.776 174.398 C 204.100 177.366,204.238 179.913,204.082 180.057 C 203.582 180.521,191.710 179.387,186.800 178.406 C 185.590 178.164,183.970 177.873,183.200 177.759 C 182.430 177.644,181.440 177.394,181.000 177.202 C 180.560 177.011,179.570 176.744,178.800 176.608 C 178.030 176.473,176.813 176.261,176.096 176.137 C 175.379 176.013,174.694 175.751,174.573 175.556 C 174.452 175.360,173.924 175.200,173.400 175.200 C 172.876 175.200,172.336 175.020,172.200 174.800 C 172.064 174.580,171.524 174.400,171.000 174.400 C 170.476 174.400,169.936 174.220,169.800 174.000 C 169.664 173.780,169.124 173.600,168.600 173.600 C 168.076 173.600,167.536 173.420,167.400 173.200 C 167.264 172.980,166.724 172.800,166.200 172.800 C 165.676 172.800,165.136 172.620,165.000 172.400 C 164.864 172.180,164.324 172.000,163.800 172.000 C 163.276 172.000,162.736 171.820,162.600 171.600 C 162.464 171.380,162.111 171.200,161.816 171.200 C 161.521 171.200,159.777 170.505,157.940 169.655 C 156.103 168.805,153.430 167.596,152.000 166.967 C 150.570 166.338,147.870 164.940,146.000 163.860 C 142.393 161.778,140.705 160.810,139.155 159.938 C 138.630 159.642,138.110 159.310,138.000 159.199 C 137.890 159.089,137.308 158.745,136.707 158.435 C 136.105 158.126,135.295 157.581,134.907 157.225 C 134.518 156.869,133.570 156.138,132.800 155.600 C 132.030 155.062,131.220 154.477,131.000 154.300 C 130.780 154.123,129.293 153.015,127.696 151.838 C 122.541 148.041,114.384 140.349,108.624 133.854 L 105.849 130.724 104.551 133.298 C 98.610 145.084,98.273 161.833,103.750 173.175 C 104.327 174.371,104.800 175.509,104.800 175.703 C 104.800 175.897,105.340 176.841,106.000 177.800 C 106.660 178.759,107.200 179.737,107.200 179.972 C 107.200 180.207,107.341 180.400,107.514 180.400 C 107.686 180.400,108.125 180.895,108.489 181.500 C 110.151 184.265,114.847 189.187,118.299 191.784 C 119.513 192.697,120.249 193.511,120.044 193.716 C 119.615 194.145,114.947 193.852,112.200 193.222 C 111.100 192.970,109.703 192.661,109.095 192.536 C 108.487 192.410,107.892 192.149,107.771 191.954 C 107.651 191.759,107.124 191.600,106.600 191.600 C 106.076 191.600,105.536 191.420,105.400 191.200 C 105.264 190.980,104.891 190.800,104.572 190.800 C 104.093 190.800,101.295 189.660,99.835 188.870 C 97.081 187.380,103.865 212.022,106.751 213.989 C 106.921 214.105,107.790 215.280,108.682 216.600 C 110.540 219.349,118.537 227.200,119.479 227.200 C 119.627 227.200,120.120 227.549,120.574 227.975 C 121.920 229.237,129.152 232.630,132.600 233.618 C 137.542 235.032,137.942 235.599,134.500 236.310 C 128.214 237.608,123.654 237.785,118.300 236.936 C 117.087 236.743,116.800 236.822,116.800 237.345 C 116.800 238.356,118.824 243.228,119.980 245.000 C 120.555 245.880,121.258 247.065,121.544 247.632 C 123.079 250.685,131.318 258.957,134.734 260.876 C 135.538 261.327,136.917 262.176,137.798 262.762 C 141.755 265.393,149.377 267.848,155.795 268.558 C 160.613 269.091,160.942 269.567,157.897 271.600 C 156.744 272.370,155.482 273.286,155.093 273.636 C 154.705 273.986,153.895 274.526,153.293 274.835 C 152.692 275.145,152.110 275.489,152.000 275.599 C 151.890 275.710,151.395 276.025,150.900 276.300 C 150.405 276.575,149.595 277.025,149.100 277.300 C 148.605 277.575,148.110 277.898,148.000 278.018 C 146.311 279.855,128.602 286.635,122.600 287.743 C 121.940 287.865,120.500 288.165,119.400 288.410 C 115.115 289.366,111.426 289.666,101.638 289.855 C 93.145 290.019,91.634 290.134,92.438 290.554 C 93.952 291.347,95.382 292.182,95.600 292.400 C 96.146 292.946,104.052 297.040,106.601 298.097 C 107.480 298.461,109.550 299.327,111.200 300.020 C 114.309 301.326,121.303 303.852,123.400 304.426 C 124.060 304.607,125.320 304.957,126.200 305.204 C 129.498 306.130,133.741 307.163,136.000 307.591 C 141.614 308.654,143.301 308.930,146.200 309.263 C 154.920 310.264,173.046 310.247,180.800 309.232 C 187.913 308.300,193.456 307.264,198.200 305.978 C 199.080 305.739,200.250 305.453,200.800 305.342 C 201.350 305.231,202.160 304.997,202.600 304.823 C 203.040 304.649,205.200 303.930,207.400 303.226 C 213.663 301.222,224.789 296.559,225.600 295.599 C 225.710 295.469,226.790 294.872,228.000 294.272 C 232.487 292.049,242.775 285.351,246.155 282.453 C 247.086 281.654,248.828 280.201,250.024 279.224 C 252.212 277.439,263.680 266.083,264.800 264.594 C 265.130 264.155,266.765 262.087,268.434 259.998 C 271.433 256.243,278.062 246.522,279.207 244.200 C 279.532 243.540,279.896 242.910,280.016 242.800 C 280.346 242.496,285.693 231.702,286.753 229.200 C 287.266 227.990,287.963 226.280,288.303 225.400 C 288.642 224.520,289.073 223.629,289.260 223.420 C 289.447 223.211,289.600 222.637,289.600 222.144 C 289.600 221.651,289.780 221.136,290.000 221.000 C 290.220 220.864,290.400 220.324,290.400 219.800 C 290.400 219.276,290.580 218.736,290.800 218.600 C 291.020 218.464,291.200 217.924,291.200 217.400 C 291.200 216.876,291.380 216.336,291.600 216.200 C 291.820 216.064,292.000 215.524,292.000 215.000 C 292.000 214.476,292.180 213.936,292.400 213.800 C 292.620 213.664,292.800 213.124,292.800 212.600 C 292.800 212.076,292.980 211.536,293.200 211.400 C 293.420 211.264,293.600 210.544,293.600 209.800 C 293.600 209.056,293.761 208.348,293.958 208.226 C 294.155 208.105,294.414 207.329,294.535 206.503 C 294.949 203.668,295.255 202.199,295.597 201.400 C 296.650 198.936,298.357 182.180,298.388 174.000 L 298.410 168.200 301.505 165.828 C 307.187 161.473,321.889 145.756,321.058 144.924 C 320.986 144.852,319.683 145.298,318.163 145.916 C 316.643 146.533,314.590 147.281,313.600 147.577 C 312.610 147.873,311.037 148.357,310.105 148.651 C 306.342 149.841,296.138 151.733,295.526 151.354 C 294.981 151.018,295.887 150.106,298.584 148.278 C 300.965 146.663,308.400 139.429,308.400 138.727 C 308.400 138.529,308.760 137.980,309.200 137.508 C 309.640 137.036,310.224 136.144,310.497 135.525 C 310.771 134.906,311.110 134.400,311.250 134.400 C 311.581 134.400,314.332 128.831,314.791 127.233 C 315.134 126.034,314.425 125.388,313.828 126.355 C 313.609 126.710,305.525 130.800,305.044 130.800 C 304.905 130.800,304.028 131.147,303.096 131.571 C 300.361 132.813,293.229 135.147,290.200 135.790 C 288.660 136.117,287.030 136.490,286.579 136.618 C 285.956 136.796,285.037 136.205,282.779 134.177 C 277.975 129.862,272.021 126.191,267.600 124.819 C 266.610 124.512,265.629 124.112,265.420 123.930 C 265.211 123.749,264.572 123.600,264.000 123.600 C 263.428 123.600,262.789 123.438,262.580 123.241 C 261.770 122.476,244.223 121.510,243.541 122.193 " stroke="none" fill="#f3f3f4" fill-rule="evenodd"></path><path id="path1" d="M179.811 0.281 C 178.277 0.369,176.868 0.656,176.681 0.920 C 176.417 1.290,176.293 1.286,176.136 0.900 C 175.895 0.306,174.800 0.224,174.800 0.800 C 174.800 1.028,173.608 1.200,172.024 1.200 C 170.497 1.200,169.136 1.380,169.000 1.600 C 168.864 1.820,167.788 2.000,166.610 2.000 C 165.422 2.000,164.402 2.194,164.322 2.435 C 164.242 2.674,163.320 2.883,162.273 2.898 C 161.225 2.914,160.275 3.079,160.161 3.264 C 160.046 3.449,159.344 3.600,158.600 3.600 C 157.856 3.600,157.136 3.780,157.000 4.000 C 156.864 4.220,155.863 4.400,154.776 4.400 C 153.689 4.400,152.800 4.560,152.800 4.756 C 152.800 5.091,151.880 5.316,148.300 5.857 C 147.475 5.982,146.800 6.245,146.800 6.442 C 146.800 6.639,146.271 6.800,145.624 6.800 C 144.977 6.800,144.336 6.980,144.200 7.200 C 144.064 7.420,143.503 7.600,142.953 7.600 C 142.403 7.600,142.047 7.753,142.163 7.940 C 142.278 8.126,141.794 8.316,141.086 8.361 C 138.907 8.500,138.800 8.523,138.800 8.867 C 138.800 9.050,138.348 9.200,137.795 9.200 C 137.242 9.200,136.477 9.369,136.095 9.576 C 135.342 9.983,133.547 10.416,133.161 10.283 C 133.030 10.237,132.670 10.400,132.361 10.645 C 132.053 10.890,131.298 11.210,130.684 11.357 C 130.070 11.503,129.665 11.781,129.784 11.974 C 129.903 12.167,129.668 12.238,129.260 12.132 C 128.853 12.025,128.267 12.177,127.960 12.469 C 127.652 12.761,127.130 13.000,126.800 13.000 C 126.470 13.000,126.242 13.216,126.293 13.480 C 126.354 13.793,125.971 13.908,125.193 13.809 C 124.537 13.726,124.000 13.809,124.000 13.992 C 124.000 14.176,123.100 14.557,122.000 14.839 C 120.900 15.121,120.000 15.497,120.000 15.676 C 120.000 15.854,119.640 16.000,119.200 16.000 C 118.760 16.000,118.400 16.180,118.400 16.400 C 118.400 16.620,118.152 16.800,117.849 16.800 C 117.546 16.800,117.083 17.059,116.820 17.376 C 116.557 17.693,116.103 17.861,115.811 17.749 C 115.520 17.637,115.162 17.738,115.017 17.973 C 114.872 18.208,114.425 18.400,114.025 18.400 C 113.625 18.400,113.076 18.668,112.804 18.996 C 112.532 19.323,112.169 19.504,111.997 19.398 C 111.825 19.292,111.582 19.471,111.457 19.796 C 111.328 20.131,110.965 20.285,110.615 20.150 C 110.277 20.021,110.000 20.114,110.000 20.357 C 110.000 20.601,109.706 20.800,109.347 20.800 C 108.988 20.800,108.403 21.115,108.047 21.500 C 107.691 21.885,107.040 22.257,106.600 22.328 C 106.160 22.398,105.620 22.684,105.400 22.963 C 105.180 23.242,104.812 23.407,104.582 23.329 C 104.352 23.251,103.774 23.551,103.299 23.994 C 102.823 24.437,102.156 24.800,101.817 24.800 C 101.478 24.800,101.200 24.991,101.200 25.224 C 101.200 25.457,101.043 25.550,100.852 25.432 C 100.436 25.175,98.714 26.581,99.043 26.909 C 99.168 27.035,98.805 27.086,98.235 27.024 C 97.666 26.961,97.200 27.065,97.200 27.255 C 97.200 27.445,96.943 27.600,96.629 27.600 C 96.315 27.600,95.728 28.019,95.325 28.532 C 94.922 29.045,94.344 29.381,94.040 29.280 C 93.706 29.169,93.599 29.275,93.768 29.548 C 93.945 29.835,93.705 30.000,93.112 30.000 C 92.597 30.000,91.917 30.360,91.600 30.800 C 91.283 31.240,90.693 31.600,90.288 31.600 C 89.884 31.600,89.664 31.780,89.800 32.000 C 89.936 32.220,89.767 32.400,89.424 32.400 C 89.081 32.400,88.800 32.580,88.800 32.800 C 88.800 33.020,88.575 33.200,88.300 33.201 C 88.025 33.201,87.170 33.744,86.400 34.406 C 85.630 35.069,84.505 35.832,83.900 36.103 C 83.295 36.374,82.800 36.731,82.800 36.898 C 82.800 37.064,82.570 37.200,82.288 37.200 C 82.007 37.200,81.517 37.560,81.200 38.000 C 80.883 38.440,80.375 38.800,80.072 38.800 C 79.427 38.800,77.203 41.074,77.194 41.742 C 77.191 41.994,77.013 41.930,76.800 41.600 C 76.421 41.013,76.197 41.442,76.344 42.475 C 76.366 42.627,76.027 42.682,75.592 42.598 C 75.156 42.515,74.800 42.661,74.799 42.923 C 74.798 43.185,74.123 43.771,73.299 44.223 C 72.475 44.676,71.849 45.275,71.910 45.553 C 71.970 45.832,71.846 45.952,71.634 45.821 C 71.423 45.690,71.064 45.902,70.837 46.292 C 70.610 46.681,70.419 46.880,70.412 46.734 C 70.405 46.588,69.797 47.038,69.060 47.734 C 68.324 48.430,67.811 49.163,67.922 49.362 C 68.033 49.561,67.914 49.594,67.658 49.436 C 67.036 49.051,65.287 50.461,65.520 51.160 C 65.630 51.489,65.525 51.601,65.260 51.437 C 64.775 51.137,61.105 54.572,61.495 54.961 C 61.626 55.093,61.433 55.200,61.067 55.200 C 60.700 55.200,60.400 55.392,60.400 55.626 C 60.400 56.181,56.181 60.400,55.626 60.400 C 55.392 60.400,55.200 60.700,55.200 61.067 C 55.200 61.433,55.093 61.626,54.961 61.495 C 54.572 61.105,51.137 64.775,51.437 65.260 C 51.601 65.525,51.489 65.630,51.160 65.520 C 50.461 65.287,49.051 67.036,49.436 67.658 C 49.594 67.914,49.561 68.033,49.362 67.922 C 49.163 67.811,48.430 68.324,47.734 69.060 C 47.038 69.797,46.588 70.405,46.734 70.412 C 46.880 70.419,46.681 70.610,46.292 70.837 C 45.902 71.064,45.690 71.423,45.821 71.634 C 45.952 71.846,45.832 71.970,45.553 71.910 C 45.275 71.849,44.676 72.475,44.223 73.299 C 43.771 74.123,43.145 74.798,42.833 74.799 C 42.522 74.800,42.383 74.917,42.526 75.059 C 42.669 75.202,42.401 75.652,41.932 76.059 C 41.343 76.570,41.252 76.808,41.639 76.827 C 41.947 76.842,41.799 77.048,41.308 77.285 C 40.817 77.521,40.193 78.220,39.919 78.837 C 39.586 79.590,39.322 79.802,39.117 79.480 C 38.919 79.168,38.810 79.285,38.806 79.812 C 38.803 80.258,38.440 80.883,38.000 81.200 C 37.560 81.517,37.200 82.097,37.200 82.488 C 37.200 82.880,36.990 83.200,36.733 83.200 C 36.477 83.200,36.381 83.314,36.520 83.453 C 36.659 83.592,36.329 84.055,35.786 84.482 C 35.244 84.909,34.800 85.515,34.800 85.829 C 34.800 86.143,34.609 86.400,34.376 86.400 C 34.143 86.400,34.052 86.561,34.174 86.758 C 34.296 86.955,34.126 87.219,33.798 87.346 C 33.469 87.472,33.200 87.851,33.200 88.187 C 33.200 88.524,33.020 88.800,32.800 88.800 C 32.580 88.800,32.400 89.081,32.400 89.424 C 32.400 89.767,32.220 89.936,32.000 89.800 C 31.780 89.664,31.600 89.884,31.600 90.288 C 31.600 90.693,31.240 91.283,30.800 91.600 C 30.360 91.917,30.000 92.597,30.000 93.112 C 30.000 93.705,29.835 93.945,29.548 93.768 C 29.275 93.599,29.169 93.706,29.280 94.040 C 29.381 94.344,29.045 94.922,28.532 95.325 C 28.019 95.728,27.600 96.315,27.600 96.629 C 27.600 96.943,27.445 97.200,27.255 97.200 C 27.065 97.200,26.961 97.666,27.024 98.235 C 27.086 98.805,27.035 99.168,26.909 99.043 C 26.581 98.714,25.175 100.436,25.432 100.852 C 25.550 101.043,25.457 101.200,25.224 101.200 C 24.991 101.200,24.800 101.478,24.800 101.817 C 24.800 102.156,24.437 102.823,23.994 103.299 C 23.551 103.774,23.251 104.352,23.329 104.582 C 23.407 104.812,23.242 105.180,22.963 105.400 C 22.684 105.620,22.398 106.160,22.328 106.600 C 22.257 107.040,21.885 107.691,21.500 108.047 C 21.115 108.403,20.800 108.988,20.800 109.347 C 20.800 109.706,20.620 110.000,20.400 110.000 C 20.180 110.000,20.000 110.360,20.000 110.800 C 20.000 111.240,19.841 111.600,19.647 111.600 C 19.323 111.600,18.930 112.482,18.581 113.993 C 18.505 114.319,18.254 114.649,18.022 114.726 C 17.790 114.803,17.600 115.206,17.600 115.621 C 17.600 116.036,17.230 117.035,16.777 117.840 C 16.325 118.646,16.046 119.542,16.157 119.832 C 16.275 120.139,16.150 120.279,15.858 120.167 C 15.533 120.042,15.177 120.679,14.842 121.987 C 14.558 123.094,14.176 124.000,13.992 124.000 C 13.809 124.000,13.726 124.537,13.809 125.193 C 13.908 125.971,13.793 126.354,13.480 126.293 C 13.216 126.242,13.000 126.470,13.000 126.800 C 13.000 127.130,12.761 127.652,12.469 127.960 C 12.177 128.267,12.025 128.853,12.132 129.260 C 12.238 129.668,12.167 129.903,11.974 129.784 C 11.781 129.665,11.503 130.070,11.356 130.684 C 11.210 131.298,10.982 131.980,10.851 132.200 C 10.720 132.420,10.595 132.690,10.574 132.800 C 10.336 134.025,9.879 135.534,9.576 136.095 C 9.369 136.477,9.200 137.242,9.200 137.795 C 9.200 138.348,9.050 138.800,8.867 138.800 C 8.523 138.800,8.500 138.907,8.361 141.086 C 8.316 141.794,8.126 142.278,7.940 142.163 C 7.753 142.047,7.600 142.403,7.600 142.953 C 7.600 143.503,7.420 144.064,7.200 144.200 C 6.980 144.336,6.800 144.977,6.800 145.624 C 6.800 146.271,6.639 146.800,6.442 146.800 C 6.094 146.800,5.803 148.204,5.346 152.100 C 5.223 153.145,4.978 153.910,4.801 153.801 C 4.624 153.691,4.498 154.264,4.521 155.074 C 4.544 155.899,4.351 156.616,4.081 156.706 C 3.815 156.795,3.600 157.568,3.600 158.433 C 3.600 159.295,3.420 160.000,3.200 160.000 C 2.980 160.000,2.800 160.979,2.800 162.176 C 2.800 163.373,2.653 164.443,2.474 164.554 C 2.295 164.665,2.129 165.676,2.104 166.800 C 2.080 167.925,1.898 169.060,1.699 169.323 C 1.501 169.585,1.303 170.872,1.260 172.182 C 1.216 173.493,1.020 174.664,0.823 174.786 C -0.089 175.350,-0.104 223.836,0.808 224.413 C 1.329 224.743,1.328 224.789,0.800 224.800 C 0.330 224.810,0.313 224.884,0.721 225.143 C 1.050 225.352,1.268 226.453,1.313 228.137 C 1.352 229.601,1.523 230.800,1.692 230.800 C 1.861 230.800,2.000 231.880,2.000 233.200 C 2.000 234.533,2.178 235.600,2.400 235.600 C 2.620 235.600,2.800 236.590,2.800 237.800 C 2.800 239.010,2.980 240.000,3.200 240.000 C 3.420 240.000,3.600 240.720,3.600 241.600 C 3.600 242.480,3.780 243.200,4.000 243.200 C 4.220 243.200,4.400 243.920,4.400 244.800 C 4.400 245.680,4.580 246.400,4.800 246.400 C 5.020 246.400,5.200 247.300,5.200 248.400 C 5.200 249.500,5.380 250.400,5.600 250.400 C 5.820 250.400,6.000 251.030,6.000 251.800 C 6.000 252.570,6.180 253.200,6.400 253.200 C 6.620 253.200,6.800 253.830,6.800 254.600 C 6.800 255.370,6.960 256.000,7.155 256.000 C 7.350 256.000,7.611 256.495,7.736 257.100 C 8.305 259.862,8.716 261.367,8.800 261.000 C 8.851 260.780,9.036 261.230,9.212 262.000 C 10.175 266.209,10.768 268.133,11.181 268.388 C 11.434 268.545,11.597 268.837,11.542 269.037 C 11.410 269.513,11.882 270.996,12.832 273.096 C 13.255 274.028,13.600 275.063,13.600 275.396 C 13.600 275.728,13.747 276.000,13.928 276.000 C 14.108 276.000,14.500 276.900,14.800 278.000 C 15.100 279.100,15.492 280.000,15.672 280.000 C 15.853 280.000,16.000 280.371,16.000 280.824 C 16.000 281.277,16.180 281.536,16.400 281.400 C 16.620 281.264,16.800 281.400,16.800 281.701 C 16.800 282.003,17.160 282.995,17.600 283.906 C 18.040 284.816,18.400 285.851,18.400 286.204 C 18.400 286.558,18.558 286.750,18.751 286.630 C 18.945 286.511,19.212 286.962,19.347 287.633 C 19.481 288.304,19.754 288.752,19.953 288.629 C 20.153 288.505,20.423 288.683,20.554 289.023 C 20.689 289.377,20.622 289.537,20.395 289.397 C 20.178 289.263,20.000 289.343,20.000 289.576 C 20.000 289.809,20.180 290.000,20.400 290.000 C 20.620 290.000,20.800 290.236,20.800 290.525 C 20.800 290.813,21.155 291.430,21.588 291.895 C 22.143 292.490,22.232 292.800,21.888 292.939 C 21.512 293.091,21.515 293.144,21.900 293.168 C 22.175 293.186,22.400 293.481,22.400 293.824 C 22.400 294.167,22.543 294.359,22.717 294.251 C 22.891 294.144,23.062 294.426,23.096 294.880 C 23.130 295.333,23.528 296.097,23.979 296.578 C 24.431 297.058,24.800 297.755,24.800 298.126 C 24.800 298.497,24.991 298.800,25.224 298.800 C 25.457 298.800,25.550 298.957,25.432 299.148 C 25.175 299.564,26.581 301.286,26.909 300.957 C 27.035 300.832,27.086 301.195,27.024 301.765 C 26.949 302.442,27.105 302.800,27.473 302.800 C 27.782 302.800,27.986 303.025,27.927 303.300 C 27.798 303.898,29.242 306.421,29.590 306.206 C 29.724 306.123,29.861 306.418,29.895 306.861 C 29.928 307.305,30.325 307.988,30.778 308.381 C 31.230 308.773,31.600 309.298,31.600 309.547 C 31.600 309.796,31.780 310.000,32.000 310.000 C 32.220 310.000,32.400 310.270,32.400 310.600 C 32.400 310.930,32.558 311.200,32.751 311.200 C 32.945 311.200,33.327 311.740,33.600 312.400 C 33.873 313.060,34.234 313.600,34.402 313.600 C 34.570 313.600,34.806 313.978,34.926 314.440 C 35.047 314.902,35.319 315.174,35.530 315.043 C 35.742 314.912,36.027 315.254,36.165 315.803 C 36.303 316.351,36.592 316.800,36.808 316.800 C 37.023 316.800,37.200 317.094,37.200 317.453 C 37.200 317.812,37.549 318.409,37.975 318.778 C 38.401 319.148,38.806 319.708,38.875 320.022 C 38.944 320.335,39.495 321.071,40.100 321.657 C 40.705 322.242,41.200 322.919,41.200 323.160 C 41.200 323.402,41.368 323.600,41.573 323.600 C 41.778 323.600,42.060 323.960,42.200 324.400 C 42.340 324.840,42.680 325.200,42.957 325.200 C 43.233 325.200,43.824 325.875,44.270 326.700 C 44.715 327.525,45.300 328.151,45.570 328.090 C 45.839 328.030,45.944 328.167,45.803 328.396 C 45.662 328.624,46.233 329.483,47.073 330.305 C 47.913 331.127,49.050 332.474,49.600 333.297 C 50.150 334.121,50.855 334.796,51.167 334.797 C 51.478 334.799,51.625 334.908,51.493 335.040 C 51.193 335.340,53.815 338.000,54.410 338.000 C 54.651 338.000,54.767 338.135,54.669 338.300 C 54.572 338.465,55.199 339.230,56.064 340.000 C 57.892 341.629,59.142 342.870,62.375 346.271 C 63.667 347.631,64.831 348.636,64.962 348.505 C 65.093 348.374,65.200 348.485,65.200 348.753 C 65.200 349.282,67.179 351.167,67.757 351.187 C 67.953 351.194,68.614 351.724,69.226 352.364 C 69.838 353.004,70.442 353.424,70.569 353.297 C 70.696 353.171,70.800 353.301,70.800 353.586 C 70.800 354.226,72.332 355.600,73.045 355.600 C 73.333 355.600,74.234 356.320,75.048 357.200 C 75.862 358.080,76.870 358.800,77.288 358.800 C 77.706 358.800,77.970 358.935,77.876 359.100 C 77.669 359.464,79.225 360.951,79.995 361.125 C 80.300 361.194,80.852 361.599,81.222 362.025 C 81.591 362.451,82.154 362.800,82.472 362.800 C 82.790 362.800,83.568 363.340,84.200 364.000 C 84.832 364.660,85.558 365.200,85.814 365.200 C 86.223 365.200,86.809 365.607,88.700 367.208 C 88.975 367.441,89.205 367.489,89.212 367.316 C 89.219 367.142,89.408 367.315,89.632 367.700 C 89.856 368.085,90.261 368.400,90.532 368.400 C 90.802 368.400,91.283 368.760,91.600 369.200 C 91.917 369.640,92.597 370.000,93.112 370.000 C 93.724 370.000,93.947 370.162,93.758 370.468 C 93.564 370.782,93.686 370.853,94.130 370.682 C 94.493 370.543,94.748 370.607,94.695 370.825 C 94.643 371.042,95.140 371.531,95.800 371.910 C 96.460 372.290,97.090 372.695,97.200 372.812 C 97.310 372.928,97.790 372.998,98.266 372.968 C 98.891 372.928,99.066 373.083,98.896 373.526 C 98.722 373.979,98.841 374.070,99.351 373.874 C 99.731 373.728,99.943 373.768,99.823 373.963 C 99.703 374.157,99.883 374.423,100.223 374.554 C 100.630 374.709,100.756 374.621,100.591 374.295 C 100.453 374.023,100.599 374.115,100.914 374.500 C 101.230 374.885,101.701 375.200,101.961 375.200 C 102.221 375.200,102.820 375.560,103.292 376.000 C 104.073 376.728,104.841 376.992,105.730 376.837 C 105.911 376.806,105.945 376.965,105.806 377.190 C 105.667 377.416,105.833 377.600,106.176 377.600 C 106.519 377.600,106.803 377.825,106.806 378.100 C 106.810 378.433,106.942 378.400,107.200 378.000 C 107.413 377.670,107.591 377.582,107.594 377.804 C 107.597 378.026,107.979 378.444,108.442 378.733 C 108.905 379.022,109.164 379.066,109.018 378.830 C 108.872 378.593,108.931 378.400,109.149 378.400 C 109.368 378.400,109.660 378.760,109.800 379.200 C 109.940 379.640,110.357 380.004,110.727 380.009 C 111.097 380.014,111.850 380.370,112.400 380.800 C 112.950 381.230,113.634 381.586,113.919 381.591 C 114.205 381.596,115.184 381.960,116.094 382.400 C 117.005 382.840,117.997 383.200,118.299 383.200 C 118.616 383.200,118.725 383.398,118.558 383.668 C 118.365 383.981,118.485 384.053,118.922 383.885 C 119.281 383.748,119.674 383.796,119.795 383.992 C 120.131 384.535,122.427 385.600,123.261 385.600 C 123.668 385.600,124.000 385.791,124.000 386.024 C 124.000 386.257,124.139 386.361,124.309 386.256 C 124.479 386.151,125.492 386.486,126.559 387.000 C 127.626 387.514,128.833 387.871,129.241 387.792 C 129.658 387.712,129.943 387.857,129.892 388.125 C 129.841 388.386,130.070 388.608,130.400 388.618 C 130.730 388.629,131.360 388.826,131.800 389.057 C 132.240 389.288,133.500 389.713,134.600 390.001 C 135.700 390.289,136.829 390.702,137.110 390.919 C 137.390 391.136,137.733 391.200,137.873 391.060 C 138.012 390.921,138.332 390.977,138.583 391.186 C 138.833 391.394,139.705 391.609,140.519 391.664 C 141.334 391.719,142.000 391.907,142.000 392.082 C 142.000 392.257,142.439 392.400,142.976 392.400 C 143.513 392.400,144.064 392.580,144.200 392.800 C 144.336 393.020,144.977 393.200,145.624 393.200 C 146.271 393.200,146.800 393.380,146.800 393.600 C 146.800 393.820,147.430 394.000,148.200 394.000 C 148.970 394.000,149.600 394.180,149.600 394.400 C 149.600 394.620,150.511 394.800,151.624 394.800 C 152.979 394.800,153.558 394.944,153.378 395.235 C 153.205 395.515,153.518 395.642,154.255 395.592 C 156.192 395.462,157.256 395.585,157.052 395.916 C 156.944 396.090,157.512 396.250,158.313 396.271 C 159.114 396.293,159.837 396.510,159.918 396.755 C 160.003 397.008,160.993 397.200,162.210 397.200 C 163.388 397.200,164.476 397.399,164.626 397.643 C 164.817 397.951,165.004 397.921,165.244 397.543 C 165.497 397.143,165.589 397.132,165.594 397.500 C 165.598 397.833,166.270 398.000,167.600 398.000 C 168.700 398.000,169.600 398.180,169.600 398.400 C 169.600 398.626,170.733 398.800,172.200 398.800 C 173.630 398.800,174.800 398.959,174.800 399.154 C 174.800 400.155,223.826 400.044,224.494 399.041 C 224.685 398.754,224.792 398.809,224.800 399.200 C 224.810 399.677,224.881 399.692,225.147 399.271 C 225.363 398.931,226.321 398.743,227.835 398.743 C 229.128 398.743,230.396 398.569,230.652 398.357 C 230.908 398.145,232.126 397.959,233.359 397.944 C 234.591 397.929,235.600 397.756,235.600 397.559 C 235.600 397.361,236.575 397.200,237.767 397.200 C 238.958 397.200,239.993 397.028,240.067 396.818 C 240.140 396.607,240.875 396.390,241.700 396.336 C 242.525 396.281,243.200 396.093,243.200 395.918 C 243.200 395.743,243.974 395.600,244.920 395.600 C 245.866 395.600,246.811 395.429,247.021 395.219 C 247.230 395.010,248.076 394.793,248.901 394.737 C 249.725 394.682,250.400 394.493,250.400 394.318 C 250.400 394.143,251.030 394.000,251.800 394.000 C 252.570 394.000,253.200 393.820,253.200 393.600 C 253.200 393.380,253.729 393.200,254.376 393.200 C 255.023 393.200,255.664 393.020,255.800 392.800 C 255.936 392.580,256.487 392.400,257.024 392.400 C 257.561 392.400,258.003 392.175,258.006 391.900 C 258.011 391.534,258.105 391.546,258.358 391.945 C 258.583 392.300,258.755 392.336,258.852 392.049 C 258.933 391.806,259.495 391.566,260.100 391.516 C 260.705 391.466,261.200 391.290,261.200 391.125 C 261.200 390.960,261.472 390.930,261.805 391.057 C 262.138 391.185,262.638 391.100,262.918 390.868 C 263.197 390.637,263.869 390.357,264.412 390.247 C 266.479 389.827,271.890 387.875,274.095 386.753 C 274.477 386.559,275.047 386.400,275.361 386.400 C 275.676 386.400,275.993 386.225,276.067 386.012 C 276.140 385.798,276.560 385.566,277.000 385.497 C 277.440 385.428,278.413 385.063,279.161 384.685 C 279.910 384.308,280.765 384.000,281.061 384.000 C 281.358 384.000,281.600 383.820,281.600 383.600 C 281.600 383.380,281.960 383.200,282.400 383.200 C 282.840 383.200,283.200 383.020,283.200 382.800 C 283.200 382.580,283.650 382.400,284.200 382.400 C 284.750 382.400,285.200 382.220,285.200 382.000 C 285.200 381.780,285.560 381.600,286.000 381.600 C 286.440 381.600,286.800 381.420,286.800 381.200 C 286.800 380.980,287.034 380.800,287.320 380.800 C 288.056 380.800,289.993 379.859,289.997 379.500 C 289.999 379.335,290.320 379.200,290.712 379.200 C 291.103 379.200,291.680 378.844,291.994 378.409 C 292.413 377.827,292.646 377.748,292.876 378.109 C 293.121 378.494,293.189 378.492,293.194 378.100 C 293.197 377.825,293.448 377.600,293.751 377.600 C 294.054 377.600,294.524 377.332,294.796 377.004 C 295.068 376.677,295.423 376.491,295.585 376.591 C 295.747 376.691,296.259 376.419,296.723 375.986 C 297.187 375.554,297.844 375.200,298.183 375.200 C 298.522 375.200,298.800 375.020,298.800 374.800 C 298.800 374.580,298.935 374.421,299.100 374.447 C 300.046 374.597,300.583 374.377,300.068 374.050 C 299.613 373.762,301.153 373.178,302.228 373.230 C 302.351 373.236,302.815 372.780,303.258 372.217 C 303.701 371.653,304.229 371.295,304.431 371.419 C 304.826 371.663,306.515 370.648,306.215 370.348 C 306.115 370.249,306.402 370.140,306.851 370.106 C 307.300 370.072,308.032 369.630,308.477 369.122 C 308.923 368.615,309.466 368.251,309.685 368.314 C 309.903 368.376,310.379 368.105,310.741 367.711 C 311.104 367.317,311.895 366.740,312.500 366.430 C 313.105 366.119,313.600 365.715,313.600 365.532 C 313.600 365.350,313.855 365.200,314.166 365.200 C 314.477 365.200,315.242 364.660,315.865 364.000 C 316.488 363.340,317.241 362.800,317.538 362.800 C 317.836 362.800,318.575 362.269,319.182 361.619 C 319.789 360.970,320.536 360.385,320.843 360.319 C 321.149 360.254,321.635 359.885,321.923 359.500 C 322.210 359.115,322.627 358.800,322.849 358.800 C 323.072 358.800,323.916 358.156,324.727 357.369 C 325.537 356.582,326.706 355.750,327.325 355.521 C 328.013 355.266,328.369 354.896,328.242 354.565 C 328.128 354.268,328.235 353.902,328.479 353.751 C 328.748 353.585,328.811 353.659,328.638 353.938 C 328.481 354.192,328.543 354.400,328.776 354.400 C 329.009 354.400,329.200 354.130,329.200 353.800 C 329.200 353.470,329.337 353.200,329.504 353.200 C 329.671 353.200,330.256 352.795,330.804 352.300 C 331.352 351.805,332.295 351.145,332.900 350.832 C 333.505 350.520,334.000 350.015,334.000 349.709 C 334.000 349.403,334.178 349.263,334.395 349.397 C 334.629 349.542,334.685 349.365,334.532 348.966 C 334.351 348.494,334.443 348.349,334.836 348.483 C 335.391 348.671,337.199 346.951,337.200 346.233 C 337.200 346.032,337.297 345.964,337.416 346.083 C 337.652 346.319,340.331 343.927,340.198 343.600 C 340.153 343.490,340.900 342.631,341.858 341.691 C 342.816 340.751,343.600 340.081,343.600 340.203 C 343.600 340.325,344.194 339.834,344.919 339.112 C 345.645 338.391,346.174 337.665,346.096 337.500 C 346.017 337.335,346.098 337.200,346.276 337.200 C 346.960 337.198,348.665 335.372,348.483 334.836 C 348.349 334.443,348.494 334.351,348.966 334.532 C 349.365 334.685,349.542 334.629,349.397 334.395 C 349.263 334.178,349.403 334.000,349.709 334.000 C 350.015 334.000,350.520 333.505,350.832 332.900 C 351.145 332.295,351.805 331.352,352.300 330.804 C 352.795 330.256,353.200 329.671,353.200 329.504 C 353.200 329.337,353.470 329.200,353.800 329.200 C 354.130 329.200,354.400 329.009,354.400 328.776 C 354.400 328.543,354.192 328.481,353.938 328.638 C 353.659 328.811,353.585 328.748,353.751 328.479 C 353.902 328.235,354.268 328.128,354.565 328.242 C 354.903 328.372,355.264 327.992,355.532 327.225 C 355.766 326.551,356.167 326.000,356.422 326.000 C 356.677 326.000,356.778 325.721,356.647 325.379 C 356.516 325.038,356.560 324.852,356.744 324.966 C 357.117 325.196,358.800 323.421,358.800 322.797 C 358.800 322.579,358.980 322.400,359.200 322.400 C 359.420 322.400,359.600 322.100,359.600 321.733 C 359.600 321.367,359.711 321.178,359.848 321.314 C 360.181 321.647,361.200 320.594,361.200 319.917 C 361.200 319.620,361.550 319.124,361.979 318.815 C 362.407 318.507,362.665 318.106,362.553 317.924 C 362.441 317.743,362.631 317.486,362.975 317.354 C 363.319 317.222,363.600 316.864,363.600 316.557 C 363.600 316.251,363.746 316.000,363.925 316.000 C 364.104 316.000,364.495 315.378,364.793 314.618 C 365.091 313.858,365.515 313.348,365.736 313.484 C 365.976 313.632,366.031 313.457,365.873 313.045 C 365.715 312.634,365.769 312.457,366.007 312.605 C 366.226 312.740,366.527 312.524,366.675 312.125 C 366.823 311.726,367.278 311.104,367.686 310.741 C 368.094 310.379,368.376 309.903,368.314 309.685 C 368.251 309.466,368.615 308.923,369.122 308.477 C 369.630 308.032,370.072 307.300,370.106 306.851 C 370.140 306.402,370.249 306.115,370.348 306.215 C 370.648 306.515,371.663 304.826,371.419 304.431 C 371.295 304.229,371.653 303.701,372.217 303.258 C 372.780 302.815,373.236 302.351,373.230 302.228 C 373.178 301.153,373.762 299.613,374.050 300.068 C 374.377 300.583,374.597 300.046,374.447 299.100 C 374.421 298.935,374.580 298.800,374.800 298.800 C 375.020 298.800,375.200 298.522,375.200 298.183 C 375.200 297.844,375.554 297.187,375.986 296.723 C 376.419 296.259,376.691 295.747,376.591 295.585 C 376.491 295.423,376.677 295.068,377.004 294.796 C 377.332 294.524,377.600 294.054,377.600 293.751 C 377.600 293.448,377.825 293.197,378.100 293.194 C 378.466 293.189,378.454 293.095,378.055 292.842 C 377.732 292.638,377.679 292.436,377.925 292.348 C 378.153 292.267,378.398 291.930,378.470 291.600 C 378.541 291.270,378.888 290.730,379.241 290.400 C 379.593 290.070,380.124 289.125,380.421 288.300 C 380.718 287.475,381.124 286.800,381.323 286.800 C 381.522 286.800,381.596 286.567,381.487 286.283 C 381.378 285.999,381.533 285.433,381.832 285.024 C 382.130 284.616,382.279 284.127,382.162 283.938 C 382.045 283.749,382.231 283.486,382.575 283.354 C 382.919 283.222,383.200 282.774,383.200 282.357 C 383.200 281.941,383.391 281.600,383.624 281.600 C 383.857 281.600,383.929 281.409,383.784 281.175 C 383.640 280.941,383.782 280.446,384.100 280.075 C 384.745 279.322,385.244 278.204,385.472 277.000 C 385.555 276.560,385.798 276.140,386.012 276.067 C 386.225 275.993,386.400 275.676,386.400 275.361 C 386.400 275.047,386.559 274.477,386.753 274.095 C 387.875 271.890,389.827 266.479,390.247 264.412 C 390.357 263.869,390.637 263.197,390.868 262.918 C 391.100 262.638,391.185 262.138,391.057 261.805 C 390.930 261.472,390.960 261.200,391.125 261.200 C 391.290 261.200,391.466 260.715,391.515 260.122 C 391.564 259.530,391.803 258.922,392.047 258.771 C 392.353 258.582,392.321 258.430,391.945 258.280 C 391.558 258.126,391.545 258.054,391.900 258.032 C 392.175 258.014,392.400 257.561,392.400 257.024 C 392.400 256.487,392.580 255.936,392.800 255.800 C 393.020 255.664,393.200 255.023,393.200 254.376 C 393.200 253.729,393.380 253.200,393.600 253.200 C 393.820 253.200,394.000 252.570,394.000 251.800 C 394.000 251.030,394.180 250.400,394.400 250.400 C 394.620 250.400,394.779 250.265,394.753 250.100 C 394.595 249.100,394.849 246.783,395.100 246.938 C 395.265 247.040,395.454 246.285,395.521 245.262 C 395.587 244.238,395.812 243.340,396.021 243.267 C 396.229 243.193,396.400 242.428,396.400 241.567 C 396.400 240.705,396.580 240.000,396.800 240.000 C 397.020 240.000,397.200 239.809,397.200 239.576 C 397.200 239.343,397.020 239.264,396.800 239.400 C 396.580 239.536,396.400 239.467,396.400 239.247 C 396.400 239.027,396.568 238.743,396.773 238.617 C 396.978 238.490,397.131 237.841,397.112 237.174 C 397.093 236.508,397.285 235.755,397.539 235.501 C 397.792 235.248,398.000 234.187,398.000 233.144 C 398.000 232.101,398.169 231.143,398.375 231.015 C 398.581 230.888,398.750 229.590,398.750 228.131 C 398.750 226.416,398.930 225.367,399.259 225.164 C 400.110 224.637,400.004 176.400,399.152 176.400 C 398.958 176.400,398.800 176.209,398.800 175.976 C 398.800 175.743,398.980 175.664,399.200 175.800 C 399.420 175.936,399.600 175.857,399.600 175.624 C 399.600 175.391,399.420 175.200,399.200 175.200 C 398.970 175.200,398.800 173.960,398.800 172.280 C 398.800 170.674,398.625 169.185,398.411 168.971 C 398.196 168.756,397.988 167.640,397.947 166.491 C 397.906 165.341,397.722 164.400,397.537 164.400 C 397.351 164.400,397.200 163.848,397.200 163.174 C 397.200 162.499,397.002 161.578,396.760 161.125 C 396.440 160.528,396.440 160.378,396.760 160.575 C 397.002 160.725,397.200 160.657,397.200 160.424 C 397.200 160.191,397.020 160.000,396.800 160.000 C 396.580 160.000,396.400 159.295,396.400 158.433 C 396.400 157.572,396.208 156.803,395.973 156.724 C 395.738 156.646,395.521 155.731,395.492 154.691 C 395.462 153.651,395.294 152.800,395.119 152.800 C 394.943 152.800,394.800 152.080,394.800 151.200 C 394.800 150.320,394.620 149.600,394.400 149.600 C 394.180 149.600,394.000 148.970,394.000 148.200 C 394.000 147.430,393.820 146.800,393.600 146.800 C 393.380 146.800,393.200 146.271,393.200 145.624 C 393.200 144.977,393.020 144.336,392.800 144.200 C 392.580 144.064,392.400 143.513,392.400 142.976 C 392.400 142.439,392.257 142.000,392.082 142.000 C 391.907 142.000,391.719 141.334,391.664 140.519 C 391.609 139.705,391.394 138.833,391.186 138.583 C 390.977 138.332,390.921 138.012,391.060 137.873 C 391.200 137.733,391.136 137.390,390.919 137.110 C 390.702 136.829,390.289 135.700,390.001 134.600 C 389.713 133.500,389.288 132.240,389.057 131.800 C 388.826 131.360,388.629 130.730,388.618 130.400 C 388.608 130.070,388.386 129.841,388.125 129.892 C 387.857 129.943,387.712 129.658,387.792 129.241 C 387.871 128.833,387.514 127.626,387.000 126.559 C 386.486 125.492,386.151 124.479,386.256 124.309 C 386.361 124.139,386.257 124.000,386.024 124.000 C 385.791 124.000,385.600 123.646,385.600 123.214 C 385.600 122.782,385.144 121.612,384.587 120.614 C 384.030 119.616,383.715 118.797,383.887 118.794 C 384.059 118.791,384.020 118.656,383.800 118.494 C 383.148 118.015,382.400 116.471,382.400 115.605 C 382.400 115.162,382.220 114.800,382.000 114.800 C 381.780 114.800,381.600 114.551,381.600 114.246 C 381.600 113.416,380.560 111.573,380.261 111.873 C 380.117 112.016,380.000 111.653,380.000 111.067 C 380.000 110.480,379.820 110.000,379.600 110.000 C 379.380 110.000,379.200 109.680,379.200 109.288 C 379.200 108.897,378.844 108.320,378.409 108.006 C 377.827 107.587,377.748 107.354,378.109 107.124 C 378.494 106.879,378.492 106.811,378.100 106.806 C 377.825 106.803,377.600 106.519,377.600 106.176 C 377.600 105.833,377.416 105.667,377.190 105.806 C 376.965 105.945,376.806 105.911,376.837 105.730 C 376.992 104.841,376.728 104.073,376.000 103.292 C 375.560 102.820,375.200 102.221,375.200 101.961 C 375.200 101.701,374.885 101.230,374.500 100.914 C 374.115 100.599,374.023 100.453,374.295 100.591 C 374.621 100.756,374.709 100.630,374.554 100.223 C 374.423 99.883,374.157 99.703,373.963 99.823 C 373.768 99.943,373.728 99.731,373.874 99.351 C 374.070 98.841,373.979 98.722,373.526 98.896 C 373.083 99.066,372.928 98.891,372.968 98.266 C 372.998 97.790,372.928 97.310,372.812 97.200 C 372.695 97.090,372.290 96.460,371.910 95.800 C 371.531 95.140,371.042 94.643,370.825 94.695 C 370.607 94.748,370.543 94.493,370.682 94.130 C 370.853 93.686,370.782 93.564,370.468 93.758 C 370.162 93.947,370.000 93.724,370.000 93.112 C 370.000 92.597,369.640 91.917,369.200 91.600 C 368.760 91.283,368.400 90.787,368.400 90.499 C 368.400 90.211,368.131 89.872,367.802 89.746 C 367.474 89.619,367.304 89.355,367.426 89.158 C 367.548 88.961,367.478 88.800,367.272 88.800 C 367.066 88.800,366.674 88.262,366.402 87.605 C 366.130 86.948,365.766 86.498,365.593 86.605 C 365.420 86.712,365.085 86.246,364.849 85.570 C 364.614 84.893,364.273 84.431,364.093 84.542 C 363.913 84.654,363.737 84.355,363.701 83.878 C 363.665 83.402,363.448 82.949,363.218 82.873 C 362.988 82.796,362.800 82.522,362.800 82.263 C 362.800 82.004,362.440 81.568,362.000 81.293 C 361.560 81.018,361.200 80.507,361.200 80.157 C 361.200 79.807,360.694 79.044,360.075 78.460 C 359.457 77.877,358.834 77.088,358.691 76.707 C 358.543 76.312,358.182 76.109,357.855 76.234 C 357.475 76.380,357.300 76.208,357.340 75.727 C 357.374 75.314,357.171 75.047,356.870 75.110 C 356.579 75.170,356.442 75.056,356.566 74.855 C 356.690 74.655,356.523 74.268,356.196 73.996 C 355.868 73.724,355.600 73.282,355.600 73.012 C 355.600 72.325,354.212 70.800,353.586 70.800 C 353.301 70.800,353.171 70.696,353.297 70.569 C 353.424 70.442,353.004 69.838,352.364 69.226 C 351.724 68.614,351.194 67.953,351.187 67.757 C 351.168 67.205,349.293 65.200,348.796 65.200 C 348.552 65.200,348.430 65.065,348.524 64.900 C 348.618 64.735,348.268 64.189,347.747 63.686 C 347.226 63.183,346.800 62.908,346.800 63.075 C 346.800 63.242,346.497 62.933,346.126 62.389 C 345.756 61.845,345.103 61.130,344.676 60.800 C 343.388 59.805,340.400 56.680,340.400 56.328 C 340.400 56.148,340.207 56.000,339.971 56.000 C 339.736 56.000,339.273 55.730,338.943 55.400 C 338.613 55.070,338.459 54.800,338.600 54.800 C 338.741 54.800,338.587 54.530,338.257 54.200 C 337.927 53.870,337.454 53.600,337.205 53.600 C 336.956 53.600,336.830 53.465,336.924 53.300 C 337.149 52.905,335.352 51.181,335.041 51.493 C 334.908 51.625,334.799 51.478,334.797 51.167 C 334.796 50.855,334.121 50.150,333.297 49.600 C 332.474 49.050,331.127 47.913,330.305 47.073 C 329.483 46.233,328.624 45.662,328.396 45.803 C 328.167 45.944,328.030 45.839,328.090 45.570 C 328.151 45.300,327.525 44.715,326.700 44.270 C 325.875 43.824,325.200 43.200,325.200 42.883 C 325.200 42.507,324.927 42.378,324.414 42.512 C 323.981 42.625,323.643 42.601,323.661 42.459 C 323.766 41.650,323.530 41.200,323.000 41.200 C 322.670 41.200,322.400 41.020,322.400 40.800 C 322.400 40.580,322.119 40.400,321.776 40.400 C 321.433 40.400,321.264 40.220,321.400 40.000 C 321.536 39.780,321.356 39.600,321.000 39.600 C 320.644 39.600,320.450 39.442,320.570 39.249 C 320.689 39.055,320.250 38.790,319.594 38.659 C 318.872 38.514,318.400 38.170,318.400 37.786 C 318.400 37.438,318.219 37.265,317.997 37.402 C 317.776 37.539,317.493 37.387,317.370 37.065 C 317.161 36.523,315.797 35.856,315.100 35.957 C 314.935 35.981,314.800 35.730,314.800 35.400 C 314.800 35.070,314.530 34.800,314.200 34.800 C 313.870 34.800,313.600 34.642,313.600 34.449 C 313.600 34.255,313.060 33.873,312.400 33.600 C 311.740 33.327,311.200 32.945,311.200 32.751 C 311.200 32.558,310.930 32.400,310.600 32.400 C 310.270 32.400,310.000 32.220,310.000 32.000 C 310.000 31.780,309.796 31.600,309.547 31.600 C 309.298 31.600,308.773 31.230,308.381 30.778 C 307.988 30.325,307.305 29.928,306.861 29.895 C 306.418 29.861,306.123 29.724,306.206 29.590 C 306.421 29.242,303.898 27.798,303.300 27.927 C 303.025 27.986,302.800 27.782,302.800 27.473 C 302.800 27.105,302.442 26.949,301.765 27.024 C 301.195 27.086,300.832 27.035,300.957 26.909 C 301.286 26.581,299.564 25.175,299.148 25.432 C 298.957 25.550,298.800 25.457,298.800 25.224 C 298.800 24.991,298.497 24.800,298.126 24.800 C 297.755 24.800,297.058 24.431,296.578 23.979 C 296.097 23.528,295.333 23.130,294.880 23.096 C 294.426 23.062,294.144 22.891,294.251 22.717 C 294.359 22.543,294.167 22.400,293.824 22.400 C 293.481 22.400,293.197 22.175,293.194 21.900 C 293.189 21.508,293.121 21.506,292.876 21.891 C 292.646 22.252,292.413 22.173,291.994 21.591 C 291.680 21.156,291.103 20.800,290.712 20.800 C 290.320 20.800,290.000 20.609,290.000 20.376 C 290.000 20.143,289.840 20.051,289.645 20.172 C 289.450 20.293,289.068 20.123,288.796 19.796 C 288.524 19.468,287.964 19.200,287.551 19.200 C 287.138 19.200,286.800 19.020,286.800 18.800 C 286.800 18.580,286.440 18.400,286.000 18.400 C 285.560 18.400,285.200 18.220,285.200 18.000 C 285.200 17.780,284.761 17.600,284.224 17.600 C 283.687 17.600,283.134 17.417,282.996 17.193 C 282.858 16.970,282.576 16.891,282.370 17.019 C 282.163 17.146,281.886 16.969,281.754 16.625 C 281.622 16.281,281.174 16.000,280.757 16.000 C 280.341 16.000,280.000 15.853,280.000 15.672 C 280.000 15.492,279.100 15.100,278.000 14.800 C 276.900 14.500,276.000 14.108,276.000 13.928 C 276.000 13.747,275.728 13.600,275.396 13.600 C 275.063 13.600,274.028 13.255,273.096 12.832 C 270.996 11.882,269.513 11.410,269.037 11.542 C 268.837 11.597,268.545 11.434,268.388 11.181 C 268.133 10.768,266.209 10.175,262.000 9.212 C 261.230 9.036,260.780 8.851,261.000 8.800 C 261.367 8.716,259.862 8.305,257.100 7.736 C 256.495 7.611,256.000 7.350,256.000 7.155 C 256.000 6.960,255.370 6.800,254.600 6.800 C 253.830 6.800,253.200 6.620,253.200 6.400 C 253.200 6.180,252.570 6.000,251.800 6.000 C 251.030 6.000,250.400 5.820,250.400 5.600 C 250.400 5.380,249.680 5.200,248.800 5.200 C 247.920 5.200,247.200 5.020,247.200 4.800 C 247.200 4.580,246.300 4.400,245.200 4.400 C 244.100 4.400,243.200 4.257,243.200 4.082 C 243.200 3.907,242.530 3.718,241.712 3.663 C 240.894 3.608,240.084 3.346,239.912 3.082 C 239.675 2.715,239.515 2.732,239.245 3.151 C 239.021 3.499,238.688 3.577,238.345 3.361 C 238.045 3.174,237.364 2.960,236.831 2.887 C 236.298 2.814,235.545 2.584,235.157 2.377 C 234.770 2.170,233.731 2.000,232.850 2.000 C 231.968 2.000,231.136 1.820,231.000 1.600 C 230.864 1.380,229.428 1.200,227.810 1.200 C 225.876 1.200,224.812 1.035,224.707 0.720 C 224.549 0.247,186.845 -0.121,179.811 0.281 M257.800 121.200 C 257.936 121.420,258.937 121.600,260.024 121.600 C 261.111 121.600,262.000 121.780,262.000 122.000 C 262.000 122.220,262.619 122.400,263.376 122.400 C 264.133 122.400,264.864 122.580,265.000 122.800 C 265.136 123.020,265.599 123.200,266.029 123.200 C 266.459 123.200,267.168 123.380,267.605 123.600 C 268.042 123.820,268.758 124.180,269.195 124.400 C 269.632 124.620,270.262 124.800,270.595 124.800 C 270.928 124.800,271.200 124.980,271.200 125.200 C 271.200 125.420,271.560 125.600,272.000 125.600 C 272.440 125.600,272.800 125.780,272.800 126.000 C 272.800 126.220,273.160 126.400,273.600 126.400 C 274.040 126.400,274.400 126.559,274.400 126.753 C 274.400 126.948,274.715 127.213,275.100 127.342 C 276.091 127.676,278.380 129.041,279.366 129.885 C 279.825 130.278,280.694 130.918,281.296 131.307 C 281.899 131.695,283.199 132.820,284.186 133.807 C 285.904 135.525,287.273 136.053,287.800 135.200 C 287.936 134.980,288.656 134.800,289.400 134.800 C 290.144 134.800,290.864 134.620,291.000 134.400 C 291.136 134.180,291.642 133.995,292.124 133.990 C 293.076 133.978,298.222 132.311,298.662 131.871 C 298.811 131.722,299.258 131.600,299.655 131.600 C 300.052 131.600,301.330 131.164,302.495 130.631 C 303.660 130.098,305.601 129.273,306.807 128.799 C 309.348 127.799,312.140 126.334,312.333 125.900 C 312.407 125.735,312.797 125.600,313.200 125.600 C 313.603 125.600,313.993 125.448,314.067 125.262 C 314.362 124.512,316.409 124.359,316.681 125.066 C 316.829 125.454,316.739 125.820,316.472 125.909 C 316.212 125.996,316.000 126.491,316.000 127.010 C 316.000 127.528,315.820 128.064,315.600 128.200 C 315.380 128.336,315.200 128.797,315.200 129.224 C 315.200 129.651,315.020 130.000,314.800 130.000 C 314.580 130.000,314.400 130.360,314.400 130.800 C 314.400 131.240,314.220 131.600,314.000 131.600 C 313.780 131.600,313.600 131.960,313.600 132.400 C 313.600 132.840,313.420 133.200,313.200 133.200 C 312.980 133.200,312.800 133.436,312.800 133.725 C 312.800 134.013,312.440 134.636,312.000 135.108 C 311.560 135.580,311.200 136.074,311.200 136.205 C 311.200 137.440,303.855 145.796,300.400 148.493 L 299.000 149.585 300.876 149.593 C 301.908 149.597,302.864 149.420,303.000 149.200 C 303.136 148.980,303.856 148.800,304.600 148.800 C 305.344 148.800,306.064 148.620,306.200 148.400 C 306.336 148.180,306.889 148.000,307.429 148.000 C 308.441 148.000,314.979 145.941,318.715 144.446 C 321.066 143.506,322.800 143.349,322.800 144.078 C 322.800 144.499,320.971 147.465,320.382 148.000 C 320.261 148.110,319.722 148.828,319.185 149.596 C 316.404 153.573,303.984 165.835,300.564 167.981 C 299.679 168.536,299.628 168.834,299.426 174.581 C 299.022 186.061,298.750 190.202,298.376 190.580 C 298.169 190.789,298.000 192.083,298.000 193.456 C 298.000 194.829,297.820 196.064,297.600 196.200 C 297.380 196.336,297.200 197.326,297.200 198.400 C 297.200 199.474,297.020 200.464,296.800 200.600 C 296.580 200.736,296.400 201.557,296.400 202.424 C 296.400 203.291,296.220 204.000,296.000 204.000 C 295.780 204.000,295.600 204.709,295.600 205.576 C 295.600 206.443,295.420 207.264,295.200 207.400 C 294.980 207.536,294.800 208.346,294.800 209.200 C 294.800 210.054,294.620 210.864,294.400 211.000 C 294.180 211.136,294.000 211.676,294.000 212.200 C 294.000 212.724,293.820 213.264,293.600 213.400 C 293.380 213.536,293.200 214.076,293.200 214.600 C 293.200 215.124,293.020 215.664,292.800 215.800 C 292.580 215.936,292.400 216.399,292.400 216.829 C 292.400 217.259,292.248 217.923,292.062 218.305 C 291.876 218.687,291.220 220.530,290.604 222.400 C 289.988 224.270,288.970 226.930,288.342 228.310 C 287.714 229.691,287.200 230.923,287.200 231.049 C 287.200 231.525,283.824 238.206,283.519 238.333 C 283.344 238.407,283.200 238.812,283.200 239.233 C 283.200 239.655,283.065 240.001,282.900 240.003 C 282.735 240.005,282.413 240.410,282.183 240.903 C 281.318 242.766,279.789 245.405,279.500 245.533 C 279.335 245.607,279.200 245.972,279.200 246.345 C 279.200 246.718,278.840 247.283,278.400 247.600 C 277.960 247.917,277.600 248.497,277.600 248.888 C 277.600 249.280,277.450 249.600,277.268 249.600 C 277.085 249.600,276.680 250.095,276.368 250.700 C 276.056 251.305,275.711 251.890,275.601 252.000 C 275.490 252.110,274.370 253.744,273.110 255.630 C 271.851 257.517,270.319 259.587,269.706 260.230 C 269.093 260.874,268.145 262.028,267.600 262.796 C 267.055 263.563,266.157 264.727,265.605 265.382 C 263.834 267.483,253.012 278.380,252.687 278.390 C 252.514 278.395,251.763 279.011,251.016 279.757 C 250.270 280.503,248.975 281.628,248.138 282.257 C 247.302 282.886,246.092 283.895,245.450 284.500 C 244.807 285.105,244.053 285.600,243.774 285.600 C 243.495 285.600,243.207 285.750,243.133 285.932 C 242.890 286.540,233.693 292.588,232.300 293.058 C 231.915 293.187,231.600 293.452,231.600 293.647 C 231.600 293.841,231.240 294.000,230.800 294.000 C 230.360 294.000,230.000 294.180,230.000 294.400 C 230.000 294.620,229.640 294.800,229.200 294.800 C 228.760 294.800,228.400 294.980,228.400 295.200 C 228.400 295.420,228.040 295.600,227.600 295.600 C 227.160 295.600,226.799 295.735,226.797 295.900 C 226.795 296.065,226.390 296.401,225.897 296.646 C 225.404 296.891,223.920 297.634,222.600 298.296 C 220.074 299.564,216.880 301.032,215.200 301.697 C 214.650 301.915,213.887 302.252,213.505 302.447 C 213.123 302.641,212.448 302.800,212.005 302.800 C 211.562 302.800,211.200 302.941,211.200 303.113 C 211.200 303.285,210.345 303.660,209.300 303.946 C 208.255 304.233,207.040 304.607,206.600 304.778 C 203.310 306.057,193.440 308.426,190.300 308.689 C 188.815 308.814,187.600 309.070,187.600 309.258 C 187.600 309.446,186.441 309.600,185.024 309.600 C 183.607 309.600,182.336 309.780,182.200 310.000 C 182.064 310.220,180.354 310.400,178.400 310.400 C 176.446 310.400,174.736 310.580,174.600 310.800 C 174.445 311.051,170.204 311.200,163.200 311.200 C 156.196 311.200,151.955 311.051,151.800 310.800 C 151.664 310.580,149.943 310.400,147.976 310.400 C 145.859 310.400,144.400 310.237,144.400 310.000 C 144.400 309.778,143.333 309.600,142.000 309.600 C 140.667 309.600,139.600 309.422,139.600 309.200 C 139.600 308.980,138.745 308.792,137.700 308.783 C 134.244 308.751,119.197 304.818,116.305 303.191 C 115.923 302.976,115.336 302.800,115.000 302.800 C 114.664 302.800,114.077 302.627,113.695 302.415 C 112.129 301.546,109.416 300.400,108.925 300.400 C 108.636 300.400,108.400 300.220,108.400 300.000 C 108.400 299.780,108.085 299.601,107.700 299.602 C 106.924 299.605,97.078 294.791,96.867 294.306 C 96.793 294.138,96.478 294.000,96.167 294.000 C 95.855 294.000,95.600 293.820,95.600 293.600 C 95.600 293.380,95.330 293.200,95.000 293.200 C 94.670 293.200,94.400 293.020,94.400 292.800 C 94.400 292.580,94.122 292.400,93.783 292.400 C 93.444 292.400,92.949 292.217,92.683 291.993 C 92.417 291.769,91.583 291.184,90.830 290.693 C 90.076 290.202,89.491 289.620,89.528 289.400 C 89.634 288.787,98.799 288.665,99.914 289.261 C 100.626 289.642,101.120 289.645,102.143 289.275 C 102.873 289.011,105.520 288.800,108.105 288.800 C 110.772 288.800,112.858 288.630,113.000 288.400 C 113.136 288.180,114.306 288.000,115.600 288.000 C 116.894 288.000,118.064 287.820,118.200 287.600 C 118.336 287.380,119.146 287.200,120.000 287.200 C 120.854 287.200,121.664 287.020,121.800 286.800 C 121.936 286.580,122.746 286.400,123.600 286.400 C 124.454 286.400,125.264 286.220,125.400 286.000 C 125.536 285.780,126.177 285.600,126.824 285.600 C 127.471 285.600,128.000 285.420,128.000 285.200 C 128.000 284.980,128.529 284.800,129.176 284.800 C 129.823 284.800,130.464 284.620,130.600 284.400 C 130.736 284.180,131.199 284.000,131.629 284.000 C 132.059 284.000,132.723 283.841,133.105 283.647 C 133.784 283.301,135.092 282.752,136.900 282.051 C 137.395 281.860,139.925 280.690,142.522 279.451 C 145.120 278.213,147.415 277.200,147.622 277.200 C 147.830 277.200,148.000 277.041,148.000 276.847 C 148.000 276.652,148.315 276.393,148.700 276.271 C 149.636 275.975,151.766 274.676,151.933 274.300 C 152.007 274.135,152.277 274.000,152.533 273.999 C 152.790 273.999,153.630 273.459,154.400 272.800 C 155.170 272.141,155.948 271.601,156.129 271.601 C 156.478 271.600,157.600 270.585,157.600 270.271 C 157.600 270.087,155.948 269.794,152.400 269.349 C 151.410 269.224,150.429 268.960,150.220 268.761 C 150.011 268.563,149.257 268.400,148.544 268.400 C 147.831 268.400,147.136 268.220,147.000 268.000 C 146.864 267.780,146.223 267.600,145.576 267.600 C 144.929 267.600,144.400 267.420,144.400 267.200 C 144.400 266.980,144.040 266.800,143.600 266.800 C 143.160 266.800,142.800 266.620,142.800 266.400 C 142.800 266.180,142.528 266.000,142.195 266.000 C 141.862 266.000,141.277 265.840,140.895 265.644 C 140.513 265.448,139.345 264.880,138.300 264.381 C 137.255 263.882,136.400 263.323,136.400 263.137 C 136.400 262.952,136.164 262.800,135.875 262.800 C 135.587 262.800,134.964 262.440,134.492 262.000 C 134.020 261.560,133.489 261.200,133.313 261.200 C 132.592 261.200,126.675 255.648,123.200 251.713 C 121.900 250.240,121.367 249.464,120.238 247.400 C 119.997 246.960,119.710 246.510,119.600 246.400 C 118.872 245.672,116.800 241.394,116.800 240.619 C 116.800 240.279,116.620 240.000,116.400 240.000 C 116.180 240.000,116.000 239.651,116.000 239.224 C 116.000 238.797,115.820 238.336,115.600 238.200 C 115.380 238.064,115.200 237.423,115.200 236.776 C 115.200 235.556,118.330 234.916,119.000 236.000 C 119.145 236.234,121.463 236.400,124.600 236.400 C 127.737 236.400,130.055 236.234,130.200 236.000 C 130.336 235.780,131.257 235.600,132.247 235.600 C 133.345 235.600,133.951 235.444,133.800 235.200 C 133.664 234.980,133.023 234.800,132.376 234.800 C 131.729 234.800,131.200 234.620,131.200 234.400 C 131.200 234.180,130.660 234.000,130.000 234.000 C 129.340 234.000,128.800 233.820,128.800 233.600 C 128.800 233.380,128.440 233.200,128.000 233.200 C 127.560 233.200,127.200 233.020,127.200 232.800 C 127.200 232.580,126.840 232.400,126.400 232.400 C 125.960 232.400,125.600 232.220,125.600 232.000 C 125.600 231.780,125.240 231.600,124.800 231.600 C 124.360 231.600,124.000 231.420,124.000 231.200 C 124.000 230.980,123.640 230.800,123.200 230.800 C 122.760 230.800,122.400 230.620,122.400 230.400 C 122.400 230.180,122.080 230.000,121.688 230.000 C 121.297 230.000,120.717 229.640,120.400 229.200 C 120.083 228.760,119.627 228.400,119.387 228.400 C 119.147 228.400,118.602 228.080,118.175 227.689 C 117.749 227.298,116.853 226.593,116.183 226.121 C 115.514 225.650,113.714 223.976,112.183 222.401 C 108.372 218.479,108.400 218.511,108.400 218.029 C 108.400 217.793,108.250 217.600,108.068 217.600 C 107.885 217.600,107.480 217.105,107.168 216.500 C 106.855 215.895,106.285 215.051,105.900 214.625 C 105.515 214.198,105.200 213.613,105.200 213.325 C 105.200 213.036,105.020 212.800,104.800 212.800 C 104.580 212.800,104.400 212.440,104.400 212.000 C 104.400 211.560,104.220 211.200,104.000 211.200 C 103.780 211.200,103.600 210.840,103.600 210.400 C 103.600 209.960,103.420 209.600,103.200 209.600 C 102.980 209.600,102.800 209.240,102.800 208.800 C 102.800 208.360,102.620 208.000,102.400 208.000 C 102.180 208.000,102.000 207.640,102.000 207.200 C 102.000 206.760,101.820 206.400,101.600 206.400 C 101.380 206.400,101.200 205.961,101.200 205.424 C 101.200 204.887,101.040 204.348,100.844 204.227 C 100.649 204.106,100.395 203.421,100.281 202.704 C 100.168 201.987,99.857 200.680,99.590 199.800 C 99.155 198.361,98.914 196.665,98.155 189.702 C 97.915 187.505,98.648 186.488,99.707 187.547 C 99.956 187.796,100.484 188.000,100.880 188.000 C 101.276 188.000,101.600 188.180,101.600 188.400 C 101.600 188.620,101.960 188.800,102.400 188.800 C 102.840 188.800,103.200 188.980,103.200 189.200 C 103.200 189.420,103.560 189.600,104.000 189.600 C 104.440 189.600,104.800 189.780,104.800 190.000 C 104.800 190.220,105.340 190.400,106.000 190.400 C 106.660 190.400,107.200 190.580,107.200 190.800 C 107.200 191.020,107.740 191.200,108.400 191.200 C 109.060 191.200,109.600 191.380,109.600 191.600 C 109.600 191.820,110.309 192.000,111.176 192.000 C 112.043 192.000,112.864 192.180,113.000 192.400 C 113.136 192.620,114.256 192.800,115.488 192.800 L 117.729 192.800 116.164 191.504 C 112.858 188.766,107.600 182.995,107.600 182.104 C 107.600 181.827,107.450 181.600,107.268 181.600 C 107.085 181.600,106.680 181.105,106.368 180.500 C 106.056 179.895,105.699 179.310,105.573 179.200 C 105.448 179.090,104.574 177.380,103.632 175.400 C 102.690 173.420,101.757 171.487,101.559 171.105 C 101.362 170.723,101.200 170.136,101.200 169.800 C 101.200 169.464,101.042 168.877,100.849 168.495 C 100.158 167.126,99.600 164.919,99.600 163.552 C 99.600 162.786,99.412 161.972,99.182 161.742 C 98.629 161.189,98.932 147.350,99.563 144.400 C 99.822 143.190,100.136 141.615,100.260 140.900 C 100.385 140.185,100.648 139.600,100.844 139.600 C 101.040 139.600,101.200 139.161,101.200 138.624 C 101.200 138.087,101.380 137.536,101.600 137.400 C 101.820 137.264,102.000 136.829,102.000 136.433 C 102.000 135.657,104.296 130.922,105.071 130.100 C 105.845 129.280,106.238 129.494,108.265 131.835 C 111.228 135.258,119.070 143.117,122.200 145.800 C 123.740 147.120,125.270 148.479,125.600 148.819 C 125.930 149.159,126.830 149.873,127.600 150.406 C 128.370 150.938,129.232 151.598,129.515 151.873 C 129.798 152.147,130.563 152.687,131.215 153.072 C 131.867 153.457,132.400 153.914,132.400 154.086 C 132.400 154.259,132.670 154.400,133.000 154.400 C 133.330 154.400,133.600 154.580,133.600 154.800 C 133.600 155.020,133.830 155.200,134.112 155.200 C 134.393 155.200,134.883 155.560,135.200 156.000 C 135.517 156.440,135.973 156.800,136.213 156.800 C 136.453 156.800,136.998 157.115,137.425 157.500 C 137.851 157.885,138.740 158.470,139.400 158.800 C 140.060 159.130,140.780 159.543,141.000 159.718 C 141.798 160.352,147.491 163.441,151.004 165.145 C 152.982 166.104,155.292 167.229,156.138 167.645 C 156.984 168.060,157.929 168.400,158.238 168.400 C 158.547 168.400,158.800 168.580,158.800 168.800 C 158.800 169.020,159.160 169.200,159.600 169.200 C 160.040 169.200,160.400 169.380,160.400 169.600 C 160.400 169.820,160.749 170.000,161.176 170.000 C 161.603 170.000,162.064 170.180,162.200 170.400 C 162.336 170.620,162.876 170.800,163.400 170.800 C 163.924 170.800,164.464 170.980,164.600 171.200 C 164.736 171.420,165.276 171.600,165.800 171.600 C 166.324 171.600,166.864 171.780,167.000 172.000 C 167.136 172.220,167.676 172.400,168.200 172.400 C 168.724 172.400,169.264 172.580,169.400 172.800 C 169.536 173.020,170.177 173.200,170.824 173.200 C 171.471 173.200,172.000 173.380,172.000 173.600 C 172.000 173.820,172.540 174.000,173.200 174.000 C 173.860 174.000,174.400 174.180,174.400 174.400 C 174.400 174.620,174.940 174.800,175.600 174.800 C 176.260 174.800,176.800 174.980,176.800 175.200 C 176.800 175.420,177.520 175.600,178.400 175.600 C 179.280 175.600,180.000 175.780,180.000 176.000 C 180.000 176.220,180.632 176.400,181.405 176.400 C 182.178 176.400,183.123 176.563,183.505 176.762 C 183.887 176.961,185.820 177.320,187.800 177.559 C 204.171 179.537,204.107 179.535,203.280 177.899 C 202.246 175.854,202.203 161.267,203.228 160.220 C 203.433 160.011,203.600 159.156,203.600 158.320 C 203.600 157.484,203.780 156.800,204.000 156.800 C 204.220 156.800,204.400 156.258,204.400 155.595 C 204.400 154.932,204.559 154.077,204.753 153.695 C 204.948 153.313,205.286 152.550,205.504 152.000 C 206.342 149.894,208.610 145.394,208.898 145.267 C 209.064 145.193,209.200 144.788,209.200 144.367 C 209.200 143.945,209.368 143.600,209.573 143.600 C 209.778 143.600,210.060 143.241,210.199 142.802 C 210.338 142.364,210.700 141.757,211.003 141.454 C 211.306 141.151,212.025 140.205,212.600 139.351 C 214.990 135.806,220.651 130.714,225.023 128.177 C 226.110 127.546,227.060 126.888,227.133 126.715 C 227.207 126.542,227.612 126.400,228.033 126.400 C 228.455 126.400,228.800 126.220,228.800 126.000 C 228.800 125.780,229.160 125.600,229.600 125.600 C 230.040 125.600,230.400 125.420,230.400 125.200 C 230.400 124.980,230.672 124.800,231.005 124.800 C 231.338 124.800,231.968 124.620,232.405 124.400 C 232.842 124.180,233.558 123.820,233.995 123.600 C 234.432 123.380,235.141 123.200,235.571 123.200 C 236.001 123.200,236.464 123.020,236.600 122.800 C 236.736 122.580,237.456 122.400,238.200 122.400 C 238.944 122.400,239.664 122.220,239.800 122.000 C 239.936 121.780,240.802 121.597,241.724 121.594 C 242.646 121.591,243.670 121.413,244.000 121.200 C 244.806 120.679,257.478 120.679,257.800 121.200 " stroke="none" fill="#54acec" fill-rule="evenodd"></path><path id="path2" d="M246.300 121.482 C 246.795 121.578,247.605 121.578,248.100 121.482 C 248.595 121.387,248.190 121.309,247.200 121.309 C 246.210 121.309,245.805 121.387,246.300 121.482 M253.500 121.482 C 253.995 121.578,254.805 121.578,255.300 121.482 C 255.795 121.387,255.390 121.309,254.400 121.309 C 253.410 121.309,253.005 121.387,253.500 121.482 M313.665 130.617 C 312.995 132.088,313.123 132.402,313.847 131.065 C 314.186 130.440,314.388 129.854,314.296 129.763 C 314.205 129.671,313.921 130.056,313.665 130.617 M107.200 131.800 C 107.946 132.570,108.647 133.200,108.757 133.200 C 108.867 133.200,108.346 132.570,107.600 131.800 C 106.854 131.030,106.153 130.400,106.043 130.400 C 105.933 130.400,106.454 131.030,107.200 131.800 M216.589 135.700 L 213.800 138.600 216.700 135.811 C 218.295 134.277,219.600 132.972,219.600 132.911 C 219.600 132.617,219.180 133.006,216.589 135.700 M110.000 134.925 C 110.000 134.994,110.585 135.579,111.300 136.225 L 112.600 137.400 111.425 136.100 C 110.330 134.888,110.000 134.616,110.000 134.925 M309.402 137.700 C 308.795 138.635,308.006 139.770,307.649 140.223 C 307.292 140.676,307.540 140.469,308.200 139.763 C 309.362 138.519,311.020 136.000,310.676 136.000 C 310.583 136.000,310.009 136.765,309.402 137.700 M114.783 140.100 C 116.441 141.866,116.800 142.184,116.800 141.883 C 116.800 141.819,115.945 140.964,114.900 139.983 L 113.000 138.200 114.783 140.100 M100.229 143.429 C 100.081 144.015,100.038 144.572,100.132 144.666 C 100.227 144.760,100.424 144.358,100.571 143.771 C 100.719 143.185,100.762 142.628,100.668 142.534 C 100.573 142.440,100.376 142.842,100.229 143.429 M119.400 144.400 C 120.259 145.280,121.052 146.000,121.162 146.000 C 121.272 146.000,120.659 145.280,119.800 144.400 C 118.941 143.520,118.148 142.800,118.038 142.800 C 117.928 142.800,118.541 143.520,119.400 144.400 M321.371 144.800 C 321.371 145.240,321.417 145.600,321.472 145.600 C 321.527 145.600,321.765 145.240,322.000 144.800 C 322.328 144.188,322.304 144.000,321.900 144.000 C 321.609 144.000,321.371 144.360,321.371 144.800 M123.200 147.725 C 123.200 147.794,123.785 148.379,124.500 149.025 L 125.800 150.200 124.625 148.900 C 123.530 147.688,123.200 147.416,123.200 147.725 M99.309 150.000 C 99.309 150.990,99.387 151.395,99.482 150.900 C 99.578 150.405,99.578 149.595,99.482 149.100 C 99.387 148.605,99.309 149.010,99.309 150.000 M299.200 150.400 C 298.408 150.654,298.367 150.720,299.000 150.720 C 299.440 150.720,300.250 150.576,300.800 150.400 C 301.592 150.146,301.633 150.080,301.000 150.080 C 300.560 150.080,299.750 150.224,299.200 150.400 M99.309 158.400 C 99.309 159.390,99.387 159.795,99.482 159.300 C 99.578 158.805,99.578 157.995,99.482 157.500 C 99.387 157.005,99.309 157.410,99.309 158.400 M307.588 161.100 L 305.000 163.800 307.700 161.212 C 309.185 159.788,310.400 158.573,310.400 158.512 C 310.400 158.217,309.993 158.592,307.588 161.100 M202.928 168.800 C 202.928 170.230,203.001 170.815,203.089 170.100 C 203.178 169.385,203.178 168.215,203.089 167.500 C 203.001 166.785,202.928 167.370,202.928 168.800 M298.901 174.200 C 298.905 175.080,298.987 175.393,299.083 174.895 C 299.179 174.398,299.175 173.678,299.075 173.295 C 298.975 172.913,298.896 173.320,298.901 174.200 M298.531 179.400 C 298.533 180.940,298.605 181.521,298.692 180.691 C 298.779 179.861,298.777 178.601,298.689 177.891 C 298.600 177.181,298.529 177.860,298.531 179.400 M193.700 179.076 C 194.085 179.176,194.715 179.176,195.100 179.076 C 195.485 178.975,195.170 178.893,194.400 178.893 C 193.630 178.893,193.315 178.975,193.700 179.076 M297.693 190.400 C 297.693 191.170,297.775 191.485,297.876 191.100 C 297.976 190.715,297.976 190.085,297.876 189.700 C 297.775 189.315,297.693 189.630,297.693 190.400 M99.206 195.833 C 99.209 196.475,99.384 197.270,99.595 197.600 C 99.855 198.009,99.899 197.690,99.732 196.600 C 99.429 194.623,99.198 194.286,99.206 195.833 M110.600 220.000 C 111.459 220.880,112.252 221.600,112.362 221.600 C 112.472 221.600,111.859 220.880,111.000 220.000 C 110.141 219.120,109.348 218.400,109.238 218.400 C 109.128 218.400,109.741 219.120,110.600 220.000 M134.548 234.859 C 135.152 235.210,135.190 235.360,134.748 235.641 C 134.313 235.916,134.339 235.989,134.876 235.994 C 135.904 236.003,136.122 235.293,135.237 234.820 C 134.201 234.265,133.586 234.300,134.548 234.859 M115.802 236.397 C 115.667 236.615,115.755 237.110,115.997 237.497 C 116.385 238.115,116.410 238.095,116.202 237.333 C 116.033 236.709,116.168 236.413,116.683 236.279 C 117.311 236.116,117.316 236.087,116.724 236.046 C 116.352 236.021,115.937 236.179,115.802 236.397 M123.700 237.076 C 124.085 237.176,124.715 237.176,125.100 237.076 C 125.485 236.975,125.170 236.893,124.400 236.893 C 123.630 236.893,123.315 236.975,123.700 237.076 M278.646 245.800 C 278.291 246.350,277.709 247.295,277.353 247.900 L 276.705 249.000 277.510 248.026 C 278.460 246.876,279.721 244.800,279.469 244.800 C 279.371 244.800,279.001 245.250,278.646 245.800 M126.800 255.000 C 127.546 255.770,128.247 256.400,128.357 256.400 C 128.467 256.400,127.946 255.770,127.200 255.000 C 126.454 254.230,125.753 253.600,125.643 253.600 C 125.533 253.600,126.054 254.230,126.800 255.000 M131.398 259.137 C 131.834 259.652,132.553 260.259,132.996 260.486 C 133.845 260.921,133.721 260.787,131.803 259.194 C 130.648 258.235,130.634 258.233,131.398 259.137 M265.377 264.300 C 263.254 266.954,263.077 267.200,263.292 267.200 C 263.396 267.200,264.330 266.120,265.368 264.800 C 266.405 263.480,267.173 262.400,267.075 262.400 C 266.977 262.400,266.212 263.255,265.377 264.300 M257.594 272.700 L 252.600 277.800 257.700 272.806 C 262.437 268.167,262.981 267.600,262.694 267.600 C 262.636 267.600,260.341 269.895,257.594 272.700 M158.392 269.497 L 159.383 269.671 157.992 270.887 L 156.600 272.103 158.000 271.100 C 159.568 269.977,159.668 269.419,158.312 269.361 C 157.529 269.328,157.541 269.347,158.392 269.497 M112.500 289.076 C 112.885 289.176,113.515 289.176,113.900 289.076 C 114.285 288.975,113.970 288.893,113.200 288.893 C 112.430 288.893,112.115 288.975,112.500 289.076 M93.100 289.482 C 93.595 289.578,94.405 289.578,94.900 289.482 C 95.395 289.387,94.990 289.309,94.000 289.309 C 93.010 289.309,92.605 289.387,93.100 289.482 M99.911 289.893 C 100.851 289.978,102.291 289.977,103.111 289.891 C 103.930 289.805,103.160 289.736,101.400 289.737 C 99.640 289.739,98.970 289.809,99.911 289.893 M132.800 307.582 C 133.130 307.805,133.745 307.991,134.167 307.994 C 135.190 308.002,134.871 307.773,133.400 307.444 C 132.524 307.248,132.362 307.285,132.800 307.582 M142.500 309.476 C 142.885 309.576,143.515 309.576,143.900 309.476 C 144.285 309.375,143.970 309.293,143.200 309.293 C 142.430 309.293,142.115 309.375,142.500 309.476 M182.705 309.483 C 183.202 309.579,183.922 309.575,184.305 309.475 C 184.687 309.375,184.280 309.296,183.400 309.301 C 182.520 309.305,182.207 309.387,182.705 309.483 M149.505 310.283 C 150.002 310.379,150.722 310.375,151.105 310.275 C 151.487 310.175,151.080 310.096,150.200 310.101 C 149.320 310.105,149.007 310.187,149.505 310.283 M175.300 310.287 C 175.905 310.378,176.895 310.378,177.500 310.287 C 178.105 310.195,177.610 310.120,176.400 310.120 C 175.190 310.120,174.695 310.195,175.300 310.287 M157.100 310.689 C 157.815 310.778,158.985 310.778,159.700 310.689 C 160.415 310.601,159.830 310.528,158.400 310.528 C 156.970 310.528,156.385 310.601,157.100 310.689 M167.300 310.691 C 168.125 310.778,169.475 310.778,170.300 310.691 C 171.125 310.605,170.450 310.534,168.800 310.534 C 167.150 310.534,166.475 310.605,167.300 310.691 " stroke="none" fill="#93c8f0" fill-rule="evenodd"></path><path id="path3" d="M247.000 121.600 C 245.713 121.777,247.139 121.876,251.000 121.878 C 255.494 121.881,256.398 121.808,254.600 121.585 C 251.724 121.228,249.684 121.232,247.000 121.600 M241.200 122.400 L 240.200 122.720 241.200 122.732 C 241.750 122.738,242.560 122.589,243.000 122.400 L 243.800 122.056 243.000 122.068 C 242.560 122.074,241.750 122.224,241.200 122.400 M258.600 122.400 C 259.040 122.589,259.850 122.738,260.400 122.732 L 261.400 122.720 260.400 122.400 C 259.850 122.224,259.040 122.074,258.600 122.068 L 257.800 122.056 258.600 122.400 M237.800 123.200 L 237.000 123.544 237.800 123.566 C 238.240 123.578,238.870 123.413,239.200 123.200 C 239.995 122.686,238.996 122.686,237.800 123.200 M262.600 123.200 C 262.736 123.420,263.242 123.587,263.724 123.572 C 264.569 123.545,264.571 123.531,263.800 123.200 C 262.699 122.727,262.308 122.727,262.600 123.200 M314.800 125.604 C 314.466 125.818,314.405 125.990,314.663 125.994 C 314.931 125.997,315.045 126.378,314.935 126.900 C 314.765 127.704,314.794 127.724,315.199 127.087 C 315.838 126.086,315.575 125.109,314.800 125.604 M311.900 127.077 C 310.856 127.658,310.069 128.203,310.153 128.287 C 310.321 128.454,313.173 126.941,313.780 126.362 C 314.399 125.772,313.913 125.957,311.900 127.077 M227.500 127.429 C 226.895 127.757,226.400 128.110,226.400 128.213 C 226.400 128.599,227.032 128.357,228.000 127.600 C 229.189 126.670,229.011 126.609,227.500 127.429 M274.400 127.719 C 274.400 127.809,275.615 128.694,277.100 129.686 C 278.585 130.678,281.127 132.684,282.750 134.145 C 285.779 136.871,286.031 136.993,287.400 136.393 C 288.055 136.105,287.967 136.053,286.915 136.105 C 286.110 136.144,285.289 135.860,284.715 135.343 C 280.627 131.658,274.400 127.055,274.400 127.719 M222.548 130.761 C 218.406 133.867,210.245 142.421,211.452 142.391 C 211.643 142.387,212.501 141.404,213.358 140.208 C 215.906 136.651,224.150 129.200,225.537 129.200 C 225.792 129.200,226.000 129.020,226.000 128.800 C 226.000 128.188,225.911 128.238,222.548 130.761 M306.200 129.814 C 302.284 131.649,297.874 133.208,290.000 135.540 L 288.600 135.955 290.200 135.737 C 291.847 135.514,300.465 132.786,302.600 131.813 C 303.260 131.512,304.610 130.954,305.600 130.573 C 306.590 130.192,307.571 129.727,307.780 129.540 C 308.349 129.031,307.589 129.163,306.200 129.814 M104.455 132.691 C 103.765 134.058,103.209 135.317,103.219 135.489 C 103.230 135.660,103.826 134.658,104.544 133.262 L 105.850 130.724 108.543 133.722 C 110.024 135.370,111.589 137.126,112.020 137.624 C 112.452 138.121,112.881 138.452,112.975 138.359 C 113.068 138.266,111.471 136.393,109.427 134.197 L 105.710 130.205 104.455 132.691 M101.473 139.893 C 101.103 141.025,100.810 142.276,100.822 142.675 C 100.833 143.074,101.191 142.320,101.615 141.000 C 102.040 139.680,102.333 138.428,102.267 138.218 C 102.200 138.008,101.843 138.762,101.473 139.893 M114.400 140.200 C 115.146 140.970,115.847 141.600,115.957 141.600 C 116.067 141.600,115.546 140.970,114.800 140.200 C 114.054 139.430,113.353 138.800,113.243 138.800 C 113.133 138.800,113.654 139.430,114.400 140.200 M304.200 143.412 C 303.100 144.608,301.141 146.355,299.846 147.294 C 294.561 151.124,294.194 151.831,297.801 151.228 L 299.800 150.894 298.100 150.847 C 295.853 150.785,295.952 150.541,299.127 148.302 C 301.825 146.399,307.318 141.184,306.588 141.218 C 306.375 141.228,305.300 142.215,304.200 143.412 M117.239 142.831 C 117.767 143.288,119.100 144.490,120.200 145.501 C 124.468 149.426,124.865 149.625,121.023 145.915 C 118.810 143.778,116.837 142.023,116.639 142.015 C 116.440 142.007,116.710 142.374,117.239 142.831 M210.253 144.100 L 209.533 145.400 210.358 144.400 C 211.089 143.513,211.414 142.800,211.086 142.800 C 211.024 142.800,210.649 143.385,210.253 144.100 M100.276 144.410 C 100.130 144.955,100.027 145.850,100.046 146.400 C 100.071 147.118,100.184 146.957,100.449 145.827 C 100.855 144.095,100.700 142.825,100.276 144.410 M320.303 144.630 C 320.177 144.757,318.122 145.557,315.736 146.410 C 313.351 147.262,311.671 147.968,312.002 147.979 C 312.603 148.000,316.413 146.689,319.361 145.447 C 320.220 145.085,320.983 144.849,321.056 144.923 C 321.889 145.755,307.195 161.467,301.505 165.828 L 298.410 168.200 298.490 172.600 L 298.570 177.000 298.699 172.694 L 298.827 168.388 301.914 165.942 C 309.023 160.306,321.600 146.736,321.600 144.701 C 321.600 144.348,320.638 144.295,320.303 144.630 M207.459 149.059 C 206.856 150.289,206.442 151.375,206.539 151.473 C 206.637 151.570,207.209 150.643,207.812 149.412 C 208.414 148.181,208.828 147.094,208.731 146.998 C 208.635 146.901,208.062 147.829,207.459 149.059 M99.424 151.700 C 99.286 153.735,99.320 156.570,99.500 158.000 C 99.769 160.133,99.830 159.469,99.843 154.300 C 99.861 147.053,99.775 146.519,99.424 151.700 M309.200 148.461 C 308.430 148.670,307.005 149.012,306.033 149.221 C 303.782 149.705,303.278 150.162,305.400 149.795 C 307.471 149.436,311.200 148.393,311.200 148.172 C 311.200 147.954,310.925 147.994,309.200 148.461 M125.600 150.127 C 125.600 150.336,129.533 153.313,130.400 153.760 C 130.730 153.930,130.550 153.698,130.000 153.244 C 128.371 151.899,125.600 149.936,125.600 150.127 M300.800 150.400 L 299.800 150.720 300.800 150.720 C 301.350 150.720,302.250 150.576,302.800 150.400 L 303.800 150.080 302.800 150.080 C 302.250 150.080,301.350 150.224,300.800 150.400 M131.205 154.273 C 131.208 154.453,131.857 155.019,132.648 155.532 C 133.440 156.045,133.972 156.278,133.831 156.051 C 133.441 155.418,131.199 153.901,131.205 154.273 M205.246 154.667 C 205.221 154.924,205.084 155.464,204.941 155.867 C 204.740 156.436,204.794 156.497,205.179 156.142 C 205.452 155.891,205.589 155.351,205.484 154.942 C 205.379 154.534,205.272 154.410,205.246 154.667 M134.405 156.674 C 134.410 157.030,137.196 158.938,137.405 158.729 C 137.475 158.658,136.828 158.093,135.967 157.474 C 135.105 156.855,134.402 156.495,134.405 156.674 M204.200 158.400 C 204.050 158.873,204.017 159.350,204.127 159.460 C 204.237 159.570,204.450 159.273,204.600 158.800 C 204.750 158.327,204.783 157.850,204.673 157.740 C 204.563 157.630,204.350 157.927,204.200 158.400 M138.000 159.121 C 138.000 159.333,138.315 159.613,138.700 159.742 C 139.085 159.872,139.940 160.302,140.600 160.699 C 148.706 165.567,154.879 168.699,154.199 167.599 C 154.064 167.379,153.774 167.200,153.556 167.200 C 152.944 167.200,147.342 164.334,143.788 162.204 C 142.034 161.153,140.015 159.942,139.300 159.514 C 138.585 159.085,138.000 158.908,138.000 159.121 M100.028 162.033 C 100.044 162.785,100.220 163.760,100.420 164.200 C 100.665 164.739,100.705 164.346,100.541 163.000 C 100.251 160.619,99.989 160.124,100.028 162.033 M203.469 162.756 C 203.321 163.495,203.223 164.843,203.251 165.750 C 203.292 167.102,203.363 166.930,203.644 164.800 C 204.017 161.965,203.900 160.599,203.469 162.756 M100.806 165.833 C 100.809 166.255,100.995 166.870,101.218 167.200 C 101.515 167.638,101.552 167.476,101.356 166.600 C 101.027 165.129,100.798 164.810,100.806 165.833 M101.656 168.400 C 101.656 168.730,101.811 169.360,102.000 169.800 C 102.217 170.304,102.344 170.378,102.344 170.000 C 102.344 169.670,102.189 169.040,102.000 168.600 C 101.783 168.096,101.656 168.022,101.656 168.400 M159.738 170.447 C 160.584 170.893,161.368 171.165,161.481 171.052 C 161.676 170.857,158.980 169.580,158.451 169.618 C 158.313 169.627,158.892 170.000,159.738 170.447 M102.418 170.851 C 102.380 171.380,103.657 174.076,103.852 173.881 C 103.965 173.768,103.693 172.984,103.247 172.138 C 102.800 171.292,102.427 170.713,102.418 170.851 M203.240 172.833 C 203.262 174.025,203.427 175.450,203.606 176.000 C 203.799 176.592,203.842 175.776,203.711 174.000 C 203.447 170.436,203.184 169.783,203.240 172.833 M167.400 173.200 C 167.536 173.420,168.042 173.587,168.524 173.572 C 169.369 173.545,169.371 173.531,168.600 173.200 C 167.499 172.727,167.108 172.727,167.400 173.200 M172.200 174.800 C 172.336 175.020,172.842 175.187,173.324 175.172 C 174.169 175.145,174.171 175.131,173.400 174.800 C 172.299 174.327,171.908 174.327,172.200 174.800 M174.590 175.584 C 174.732 175.813,175.317 176.000,175.890 176.000 C 177.144 176.000,176.999 175.808,175.466 175.440 C 174.723 175.262,174.421 175.311,174.590 175.584 M177.600 176.400 C 177.930 176.613,178.650 176.773,179.200 176.754 L 180.200 176.720 179.200 176.400 C 177.658 175.906,176.836 175.906,177.600 176.400 M181.004 177.206 C 181.138 177.423,181.807 177.600,182.490 177.600 C 184.001 177.600,183.849 177.400,182.080 177.063 C 181.255 176.906,180.852 176.960,181.004 177.206 M106.186 178.700 C 106.535 179.415,106.906 180.000,107.010 180.000 C 107.408 180.000,107.152 179.363,106.367 178.400 L 105.552 177.400 106.186 178.700 M184.800 177.988 C 185.130 178.208,186.015 178.391,186.767 178.394 C 188.560 178.402,188.241 178.175,186.000 177.850 C 184.742 177.667,184.381 177.709,184.800 177.988 M188.800 178.791 C 189.339 179.148,193.568 179.404,193.167 179.056 C 193.075 178.976,191.920 178.795,190.600 178.653 C 188.957 178.476,188.389 178.520,188.800 178.791 M204.032 178.913 C 204.014 179.305,203.595 179.789,203.100 179.988 L 202.200 180.349 203.113 180.375 C 204.063 180.401,204.624 179.596,204.269 178.713 C 204.142 178.396,204.051 178.472,204.032 178.913 M194.800 179.613 C 195.789 179.917,202.288 180.135,201.967 179.854 C 201.875 179.774,200.000 179.618,197.800 179.508 C 195.600 179.397,194.250 179.445,194.800 179.613 M107.991 181.588 C 109.228 183.324,109.825 183.534,108.732 181.848 C 108.219 181.057,107.653 180.408,107.473 180.405 C 107.293 180.402,107.526 180.935,107.991 181.588 M298.075 183.000 C 298.030 184.100,297.907 185.990,297.803 187.200 C 297.619 189.327,297.626 189.347,298.021 187.800 C 298.246 186.920,298.369 185.030,298.294 183.600 C 298.172 181.300,298.147 181.231,298.075 183.000 M110.734 185.100 C 112.165 186.886,116.000 190.680,116.000 190.310 C 116.000 190.167,114.740 188.780,113.200 187.228 C 111.660 185.675,110.400 184.224,110.400 184.003 C 110.400 183.781,110.205 183.600,109.966 183.600 C 109.728 183.600,110.073 184.275,110.734 185.100 M99.170 188.700 C 99.053 189.855,99.327 194.485,99.590 195.800 C 99.784 196.771,99.825 195.706,99.694 193.089 C 99.490 189.040,99.521 188.795,100.204 189.057 C 100.705 189.249,100.841 189.191,100.642 188.868 C 100.323 188.351,99.218 188.225,99.170 188.700 M101.200 189.395 C 101.200 189.605,103.935 190.811,104.349 190.783 C 104.670 190.762,101.901 189.239,101.500 189.217 C 101.335 189.208,101.200 189.288,101.200 189.395 M116.400 190.524 C 116.400 190.617,117.255 191.368,118.300 192.192 L 120.200 193.691 116.882 193.511 C 115.057 193.411,113.797 193.478,114.082 193.659 C 114.765 194.092,119.893 194.096,120.161 193.664 C 120.345 193.366,119.693 192.771,117.112 190.877 C 116.721 190.590,116.400 190.431,116.400 190.524 M297.076 192.010 C 296.930 192.555,296.828 193.540,296.849 194.200 C 296.880 195.157,296.959 195.036,297.242 193.600 C 297.629 191.633,297.502 190.417,297.076 192.010 M110.400 192.800 C 110.730 193.013,111.450 193.173,112.000 193.154 L 113.000 193.120 112.000 192.800 C 110.458 192.306,109.636 192.306,110.400 192.800 M296.178 198.178 C 296.027 198.981,295.994 199.727,296.104 199.837 C 296.214 199.947,296.427 199.381,296.578 198.578 C 296.728 197.775,296.762 197.028,296.652 196.918 C 296.542 196.808,296.328 197.375,296.178 198.178 M100.031 197.880 C 99.991 198.500,101.123 202.857,101.394 203.127 C 101.507 203.241,101.599 203.168,101.598 202.967 C 101.596 202.343,100.063 197.370,100.031 197.880 M295.467 201.467 C 295.320 201.613,295.215 202.198,295.234 202.767 C 295.268 203.781,295.275 203.779,295.621 202.620 C 295.985 201.403,295.931 201.002,295.467 201.467 M101.628 204.276 C 101.613 204.758,101.780 205.264,102.000 205.400 C 102.473 205.692,102.473 205.301,102.000 204.200 C 101.669 203.429,101.655 203.431,101.628 204.276 M294.673 204.953 C 294.523 205.345,294.411 205.966,294.425 206.333 C 294.442 206.775,294.581 206.674,294.837 206.034 C 295.049 205.503,295.161 204.882,295.085 204.654 C 295.009 204.427,294.824 204.561,294.673 204.953 M102.434 206.200 C 102.434 206.420,102.778 207.230,103.200 208.000 C 103.622 208.770,103.966 209.220,103.966 209.000 C 103.966 208.780,103.622 207.970,103.200 207.200 C 102.778 206.430,102.434 205.980,102.434 206.200 M293.867 208.267 C 293.720 208.413,293.615 208.998,293.634 209.567 C 293.668 210.581,293.675 210.579,294.021 209.420 C 294.385 208.203,294.331 207.802,293.867 208.267 M104.809 211.500 C 104.814 211.665,105.185 212.250,105.633 212.800 L 106.448 213.800 105.814 212.500 C 105.211 211.265,104.789 210.845,104.809 211.500 M293.067 211.467 C 292.920 211.613,292.811 212.108,292.825 212.567 C 292.849 213.333,292.882 213.323,293.234 212.442 C 293.626 211.463,293.544 210.989,293.067 211.467 M292.267 213.867 C 292.120 214.013,292.011 214.508,292.025 214.967 C 292.049 215.733,292.082 215.723,292.434 214.842 C 292.826 213.863,292.744 213.389,292.267 213.867 M108.001 216.300 C 110.994 220.484,118.020 227.314,118.667 226.667 C 118.813 226.520,118.727 226.400,118.474 226.400 C 117.635 226.400,110.080 218.788,108.528 216.378 C 107.687 215.074,106.855 214.005,106.678 214.003 C 106.501 214.002,107.096 215.035,108.001 216.300 M291.467 216.267 C 291.320 216.413,291.211 216.908,291.225 217.367 C 291.249 218.133,291.282 218.123,291.634 217.242 C 292.026 216.263,291.944 215.789,291.467 216.267 M290.667 218.667 C 290.520 218.813,290.411 219.308,290.425 219.767 C 290.449 220.533,290.482 220.523,290.834 219.642 C 291.226 218.663,291.144 218.189,290.667 218.667 M289.867 221.067 C 289.720 221.213,289.611 221.708,289.625 222.167 C 289.649 222.933,289.682 222.923,290.034 222.042 C 290.426 221.063,290.344 220.589,289.867 221.067 M288.790 224.200 C 288.576 224.750,288.209 225.695,287.975 226.300 C 287.741 226.905,287.714 227.220,287.915 227.000 C 288.386 226.483,289.658 223.200,289.387 223.200 C 289.273 223.200,289.005 223.650,288.790 224.200 M120.000 228.022 C 121.155 228.952,124.000 230.512,124.000 230.216 C 124.000 230.106,123.313 229.666,122.473 229.237 C 121.634 228.809,120.711 228.175,120.424 227.829 C 120.137 227.483,119.699 227.204,119.451 227.209 C 119.203 227.214,119.450 227.580,120.000 228.022 M286.598 229.476 C 286.165 230.534,285.140 232.795,284.320 234.500 C 283.500 236.205,282.897 237.600,282.980 237.600 C 283.269 237.600,285.033 234.188,285.980 231.800 C 286.503 230.480,287.098 229.181,287.303 228.913 C 287.508 228.646,287.610 228.230,287.530 227.989 C 287.450 227.749,287.030 228.418,286.598 229.476 M127.200 232.006 C 128.759 232.866,133.980 234.554,134.249 234.284 C 134.344 234.189,133.292 233.796,131.911 233.410 C 130.530 233.024,128.732 232.369,127.916 231.954 C 125.972 230.967,125.393 231.009,127.200 232.006 M135.308 234.837 C 135.698 235.064,135.912 235.418,135.785 235.625 C 135.657 235.831,135.833 236.000,136.176 236.000 C 136.519 236.000,136.800 235.856,136.800 235.680 C 136.800 235.141,135.875 234.399,135.220 234.412 C 134.714 234.422,134.731 234.500,135.308 234.837 M132.400 236.400 L 131.400 236.720 132.400 236.732 C 132.950 236.738,133.760 236.589,134.200 236.400 L 135.000 236.056 134.200 236.068 C 133.760 236.074,132.950 236.224,132.400 236.400 M116.221 237.300 C 116.682 238.807,117.243 239.542,116.951 238.257 C 116.776 237.486,116.872 237.000,117.246 236.763 C 117.657 236.503,117.560 236.411,116.873 236.406 C 116.096 236.401,115.991 236.546,116.221 237.300 M121.304 237.324 C 122.955 237.550,125.213 237.551,127.104 237.327 C 130.047 236.977,129.913 236.958,124.400 236.956 C 119.169 236.954,118.865 236.990,121.304 237.324 M120.186 245.900 C 120.535 246.615,120.906 247.200,121.010 247.200 C 121.408 247.200,121.152 246.563,120.367 245.600 L 119.552 244.600 120.186 245.900 M274.750 251.293 C 273.568 253.104,271.714 255.759,270.631 257.193 C 269.549 258.627,269.062 259.450,269.550 259.021 C 270.646 258.059,277.513 248.000,277.074 248.000 C 276.979 248.000,275.933 249.482,274.750 251.293 M124.728 252.300 C 126.936 254.830,130.800 258.689,130.800 258.364 C 130.800 258.251,129.180 256.487,127.200 254.444 C 125.220 252.401,123.600 250.565,123.600 250.365 C 123.600 250.164,123.402 250.000,123.160 250.000 C 122.919 250.000,123.624 251.035,124.728 252.300 M267.759 260.900 C 266.105 262.808,265.425 263.826,266.625 262.597 C 268.034 261.155,268.965 260.000,268.719 260.000 C 268.620 260.000,268.188 260.405,267.759 260.900 M135.166 261.521 C 136.701 262.600,139.200 264.061,139.200 263.879 C 139.200 263.627,134.857 260.797,134.506 260.821 C 134.338 260.833,134.635 261.148,135.166 261.521 M141.600 264.995 C 141.600 265.205,144.335 266.411,144.749 266.383 C 145.070 266.362,142.301 264.839,141.900 264.817 C 141.735 264.808,141.600 264.888,141.600 264.995 M257.988 271.720 C 254.804 274.866,251.221 278.241,250.024 279.220 C 248.828 280.199,247.082 281.657,246.145 282.461 C 244.271 284.068,232.626 291.995,232.118 292.009 C 231.943 292.014,231.350 292.385,230.800 292.833 L 229.800 293.648 231.200 292.963 C 234.289 291.450,244.491 284.274,249.200 280.300 C 253.583 276.601,264.542 266.000,263.981 266.000 C 263.868 266.000,261.171 268.574,257.988 271.720 M145.273 266.606 C 145.543 266.877,149.900 268.009,150.520 267.969 C 151.030 267.937,146.057 266.404,145.433 266.402 C 145.232 266.401,145.159 266.493,145.273 266.606 M151.608 268.413 C 152.149 268.756,156.351 268.989,155.967 268.655 C 155.875 268.576,154.723 268.404,153.408 268.275 C 151.854 268.121,151.223 268.170,151.608 268.413 M157.600 269.059 C 159.649 269.428,159.767 269.551,158.954 270.465 C 158.204 271.309,158.205 271.310,159.109 270.757 C 160.511 269.899,160.065 269.010,158.197 268.939 C 157.319 268.906,157.050 268.960,157.600 269.059 M153.892 273.883 C 153.063 274.452,152.461 274.995,152.554 275.088 C 152.782 275.315,155.589 273.481,155.595 273.100 C 155.602 272.704,155.628 272.691,153.892 273.883 M150.000 276.400 C 149.010 277.058,148.380 277.593,148.600 277.589 C 148.820 277.585,149.450 277.230,150.000 276.800 C 150.550 276.370,151.225 276.014,151.500 276.009 C 151.775 276.004,152.000 275.820,152.000 275.600 C 152.000 275.060,152.040 275.044,150.000 276.400 M144.552 279.366 C 142.773 280.308,139.132 281.947,136.461 283.009 C 133.790 284.070,131.671 285.005,131.752 285.086 C 132.083 285.417,146.546 279.209,147.967 278.127 C 149.030 277.317,147.101 278.017,144.552 279.366 M129.200 285.600 C 128.405 286.114,129.404 286.114,130.600 285.600 L 131.400 285.256 130.600 285.234 C 130.160 285.222,129.530 285.387,129.200 285.600 M126.600 286.400 C 126.096 286.617,126.022 286.744,126.400 286.744 C 126.730 286.744,127.360 286.589,127.800 286.400 C 128.304 286.183,128.378 286.056,128.000 286.056 C 127.670 286.056,127.040 286.211,126.600 286.400 M123.400 287.200 L 122.600 287.544 123.400 287.544 C 123.840 287.544,124.560 287.389,125.000 287.200 L 125.800 286.856 125.000 286.856 C 124.560 286.856,123.840 287.011,123.400 287.200 M119.800 288.000 L 119.000 288.344 119.800 288.366 C 120.240 288.378,120.870 288.213,121.200 288.000 C 121.995 287.486,120.996 287.486,119.800 288.000 M115.400 288.800 L 114.200 289.105 115.600 289.147 C 116.370 289.169,117.270 289.013,117.600 288.800 C 118.339 288.323,117.276 288.323,115.400 288.800 M90.800 289.595 C 90.800 289.992,91.376 290.420,93.700 291.748 C 94.745 292.345,95.600 292.667,95.600 292.464 C 95.600 292.260,95.285 291.987,94.900 291.858 C 94.515 291.728,93.573 291.257,92.806 290.811 L 91.412 290.000 95.006 289.968 C 96.983 289.951,98.420 289.876,98.200 289.801 C 97.291 289.493,90.800 289.313,90.800 289.595 M107.400 289.600 L 104.200 289.853 107.400 289.887 C 109.160 289.905,111.050 289.776,111.600 289.600 L 112.600 289.280 111.600 289.313 C 111.050 289.332,109.160 289.461,107.400 289.600 M96.000 292.990 C 96.000 293.094,96.585 293.465,97.300 293.814 L 98.600 294.448 97.600 293.633 C 96.637 292.848,96.000 292.592,96.000 292.990 M226.500 294.944 C 226.005 295.189,225.600 295.532,225.600 295.705 C 225.600 295.879,226.140 295.741,226.800 295.400 C 227.460 295.059,228.000 294.694,228.000 294.590 C 228.000 294.321,227.539 294.430,226.500 294.944 M107.200 298.595 C 107.200 298.805,109.935 300.011,110.349 299.983 C 110.670 299.962,107.901 298.439,107.500 298.417 C 107.335 298.408,107.200 298.488,107.200 298.595 M112.122 300.792 C 114.018 301.738,122.036 304.497,122.255 304.278 C 122.344 304.190,120.927 303.618,119.108 303.007 C 117.289 302.396,114.770 301.470,113.512 300.948 C 110.781 299.816,109.990 299.727,112.122 300.792 M214.200 300.822 C 213.320 301.238,212.803 301.584,213.051 301.590 C 213.632 301.603,216.400 300.450,216.400 300.195 C 216.400 299.877,215.891 300.022,214.200 300.822 M207.600 303.101 C 205.290 303.878,203.149 304.583,202.843 304.667 C 202.536 304.750,202.374 304.907,202.481 305.014 C 202.801 305.335,212.400 302.163,212.400 301.737 C 212.400 301.509,211.965 301.633,207.600 303.101 M122.850 304.583 C 123.292 305.025,134.026 307.707,134.291 307.442 C 134.403 307.330,133.978 307.131,133.347 307.000 C 132.207 306.762,130.755 306.404,127.500 305.558 C 126.565 305.315,125.387 304.955,124.881 304.758 C 123.923 304.385,122.532 304.265,122.850 304.583 M199.400 305.589 C 198.960 305.774,197.970 306.111,197.200 306.340 L 195.800 306.755 197.322 306.529 C 199.592 306.192,202.446 305.253,201.200 305.254 C 200.650 305.254,199.840 305.405,199.400 305.589 M193.200 307.200 C 192.436 307.694,193.258 307.694,194.800 307.200 L 195.800 306.880 194.800 306.846 C 194.250 306.827,193.530 306.987,193.200 307.200 M134.833 307.749 C 134.925 307.831,135.900 308.007,137.000 308.141 C 138.346 308.305,138.739 308.265,138.200 308.020 C 137.439 307.674,134.483 307.436,134.833 307.749 M189.000 308.000 L 188.200 308.344 189.000 308.325 C 189.440 308.314,190.340 308.168,191.000 308.000 L 192.200 307.695 191.000 307.675 C 190.340 307.665,189.440 307.811,189.000 308.000 M140.600 308.800 C 141.260 308.968,142.160 309.114,142.600 309.125 L 143.400 309.144 142.600 308.800 C 142.160 308.611,141.260 308.465,140.600 308.475 L 139.400 308.495 140.600 308.800 M184.000 308.823 C 183.574 309.114,183.980 309.155,185.400 308.965 C 186.500 308.818,187.475 308.631,187.567 308.549 C 187.968 308.190,184.539 308.454,184.000 308.823 M144.433 309.345 C 144.525 309.425,145.860 309.598,147.400 309.728 C 149.166 309.878,149.905 309.835,149.400 309.611 C 148.647 309.277,144.075 309.033,144.433 309.345 M177.600 309.600 L 176.600 309.920 177.600 309.930 C 178.150 309.936,179.410 309.797,180.400 309.620 L 182.200 309.300 180.400 309.290 C 179.410 309.284,178.150 309.424,177.600 309.600 M157.444 310.426 C 160.768 310.587,165.988 310.587,169.044 310.425 C 173.695 310.179,172.711 310.131,163.000 310.132 C 152.846 310.133,152.154 310.169,157.444 310.426 " stroke="none" fill="#b7d7f4" fill-rule="evenodd"></path><path id="path4" d="M249.100 121.093 C 250.035 121.177,251.565 121.177,252.500 121.093 C 253.435 121.009,252.670 120.940,250.800 120.940 C 248.930 120.940,248.165 121.009,249.100 121.093 M283.200 133.800 C 283.946 134.570,284.647 135.200,284.757 135.200 C 284.867 135.200,284.346 134.570,283.600 133.800 C 282.854 133.030,282.153 132.400,282.043 132.400 C 281.933 132.400,282.454 133.030,283.200 133.800 M216.581 135.300 L 215.000 137.000 216.700 135.419 C 218.281 133.948,218.584 133.600,218.281 133.600 C 218.216 133.600,217.451 134.365,216.581 135.300 M309.200 159.800 C 308.228 160.790,307.523 161.600,307.633 161.600 C 307.743 161.600,308.628 160.790,309.600 159.800 C 310.572 158.810,311.277 158.000,311.167 158.000 C 311.057 158.000,310.172 158.810,309.200 159.800 M202.914 164.600 C 202.917 165.700,202.995 166.103,203.087 165.495 C 203.179 164.886,203.177 163.986,203.082 163.495 C 202.987 163.003,202.911 163.500,202.914 164.600 M298.920 170.800 C 298.920 172.010,298.995 172.505,299.087 171.900 C 299.178 171.295,299.178 170.305,299.087 169.700 C 298.995 169.095,298.920 169.590,298.920 170.800 M202.920 173.200 C 202.920 174.410,202.995 174.905,203.087 174.300 C 203.178 173.695,203.178 172.705,203.087 172.100 C 202.995 171.495,202.920 171.990,202.920 173.200 M298.893 176.800 C 298.893 177.570,298.975 177.885,299.076 177.500 C 299.176 177.115,299.176 176.485,299.076 176.100 C 298.975 175.715,298.893 176.030,298.893 176.800 M298.531 184.600 C 298.533 186.140,298.605 186.721,298.692 185.891 C 298.779 185.061,298.777 183.801,298.689 183.091 C 298.600 182.381,298.529 183.060,298.531 184.600 M98.400 189.200 C 98.400 189.860,98.470 190.400,98.555 190.400 C 98.640 190.400,98.788 189.860,98.885 189.200 C 98.982 188.540,98.913 188.000,98.731 188.000 C 98.549 188.000,98.400 188.540,98.400 189.200 M112.600 222.400 C 114.128 223.940,115.469 225.200,115.579 225.200 C 115.689 225.200,114.528 223.940,113.000 222.400 C 111.472 220.860,110.131 219.600,110.021 219.600 C 109.911 219.600,111.072 220.860,112.600 222.400 M120.291 236.689 C 121.001 236.777,122.261 236.779,123.091 236.692 C 123.921 236.605,123.340 236.533,121.800 236.531 C 120.260 236.529,119.581 236.600,120.291 236.689 M125.900 236.689 C 126.615 236.778,127.785 236.778,128.500 236.689 C 129.215 236.601,128.630 236.528,127.200 236.528 C 125.770 236.528,125.185 236.601,125.900 236.689 M256.187 274.500 L 253.800 277.000 256.300 274.613 C 257.675 273.299,258.800 272.174,258.800 272.113 C 258.800 271.817,258.405 272.178,256.187 274.500 M91.305 289.087 C 91.914 289.179,92.814 289.177,93.305 289.082 C 93.797 288.987,93.300 288.911,92.200 288.914 C 91.100 288.917,90.697 288.995,91.305 289.087 M110.100 289.076 C 110.485 289.176,111.115 289.176,111.500 289.076 C 111.885 288.975,111.570 288.893,110.800 288.893 C 110.030 288.893,109.715 288.975,110.100 289.076 M106.305 289.483 C 106.802 289.579,107.522 289.575,107.905 289.475 C 108.287 289.375,107.880 289.296,107.000 289.301 C 106.120 289.305,105.807 289.387,106.305 289.483 M153.905 310.683 C 154.402 310.779,155.122 310.775,155.505 310.675 C 155.887 310.575,155.480 310.496,154.600 310.501 C 153.720 310.505,153.407 310.587,153.905 310.683 M160.700 311.098 C 162.515 311.172,165.485 311.172,167.300 311.098 C 169.115 311.023,167.630 310.963,164.000 310.963 C 160.370 310.963,158.885 311.023,160.700 311.098 " stroke="none" fill="#77bcec" fill-rule="evenodd"></path><path id="path5" d="M98.946 154.200 C 98.947 156.400,99.014 157.249,99.095 156.087 C 99.176 154.924,99.176 153.124,99.093 152.087 C 99.011 151.049,98.945 152.000,98.946 154.200 M299.301 174.200 C 299.305 175.080,299.387 175.393,299.483 174.895 C 299.579 174.398,299.575 173.678,299.475 173.295 C 299.375 172.913,299.296 173.320,299.301 174.200 M98.901 194.200 C 98.905 195.080,98.987 195.393,99.083 194.895 C 99.179 194.398,99.175 193.678,99.075 193.295 C 98.975 192.913,98.896 193.320,98.901 194.200 M261.375 269.300 L 260.200 270.600 261.500 269.425 C 262.215 268.779,262.800 268.194,262.800 268.125 C 262.800 267.816,262.470 268.088,261.375 269.300 M155.505 311.083 C 156.002 311.179,156.722 311.175,157.105 311.075 C 157.487 310.975,157.080 310.896,156.200 310.901 C 155.320 310.905,155.007 310.987,155.505 311.083 " stroke="none" fill="#6cb4ec" fill-rule="evenodd"></path><path id="path6" d="M283.800 134.000 C 284.659 134.880,285.452 135.600,285.562 135.600 C 285.672 135.600,285.059 134.880,284.200 134.000 C 283.341 133.120,282.548 132.400,282.438 132.400 C 282.328 132.400,282.941 133.120,283.800 134.000 M304.575 144.100 L 303.400 145.400 304.700 144.225 C 305.415 143.579,306.000 142.994,306.000 142.925 C 306.000 142.616,305.670 142.888,304.575 144.100 M98.901 149.000 C 98.905 149.880,98.987 150.193,99.083 149.695 C 99.179 149.198,99.175 148.478,99.075 148.095 C 98.975 147.713,98.896 148.120,98.901 149.000 M98.893 159.200 C 98.893 159.970,98.975 160.285,99.076 159.900 C 99.176 159.515,99.176 158.885,99.076 158.500 C 98.975 158.115,98.893 158.430,98.893 159.200 M299.320 170.800 C 299.320 172.010,299.395 172.505,299.487 171.900 C 299.578 171.295,299.578 170.305,299.487 169.700 C 299.395 169.095,299.320 169.590,299.320 170.800 M299.293 176.800 C 299.293 177.570,299.375 177.885,299.476 177.500 C 299.576 177.115,299.576 176.485,299.476 176.100 C 299.375 175.715,299.293 176.030,299.293 176.800 M201.100 179.482 C 201.595 179.578,202.405 179.578,202.900 179.482 C 203.395 179.387,202.990 179.309,202.000 179.309 C 201.010 179.309,200.605 179.387,201.100 179.482 M117.421 192.761 C 116.678 193.052,116.683 193.076,117.521 193.295 C 118.119 193.452,118.400 193.345,118.400 192.963 C 118.400 192.653,118.355 192.413,118.300 192.428 C 118.245 192.444,117.850 192.593,117.421 192.761 M157.106 269.883 C 157.629 269.984,157.899 270.240,157.744 270.490 C 157.585 270.749,157.663 270.808,157.938 270.638 C 158.767 270.126,158.425 269.599,157.300 269.654 C 156.348 269.702,156.322 269.732,157.106 269.883 M105.700 289.076 C 106.085 289.176,106.715 289.176,107.100 289.076 C 107.485 288.975,107.170 288.893,106.400 288.893 C 105.630 288.893,105.315 288.975,105.700 289.076 " stroke="none" fill="#64b4ec" fill-rule="evenodd"></path><path id="path7" d="M218.575 132.900 L 217.400 134.200 218.700 133.025 C 219.415 132.379,220.000 131.794,220.000 131.725 C 220.000 131.416,219.670 131.688,218.575 132.900 M214.175 137.300 L 213.000 138.600 214.300 137.425 C 215.015 136.779,215.600 136.194,215.600 136.125 C 215.600 135.816,215.270 136.088,214.175 137.300 M307.206 141.394 C 306.463 142.161,305.932 142.850,306.027 142.925 C 306.122 143.000,306.806 142.373,307.546 141.531 C 309.229 139.618,309.012 139.531,307.206 141.394 M298.400 149.680 C 297.702 150.276,297.621 150.452,298.133 150.266 C 298.536 150.120,299.166 149.986,299.533 149.968 C 299.952 149.949,300.014 149.862,299.698 149.734 C 299.421 149.623,299.297 149.367,299.421 149.166 C 299.766 148.608,299.498 148.743,298.400 149.680 M202.158 168.225 C 202.016 168.789,202.058 169.604,202.250 170.035 C 202.514 170.626,202.600 170.373,202.600 169.009 C 202.600 166.934,202.518 166.789,202.158 168.225 M188.500 177.876 C 188.885 177.976,189.515 177.976,189.900 177.876 C 190.285 177.775,189.970 177.693,189.200 177.693 C 188.430 177.693,188.115 177.775,188.500 177.876 M299.260 178.867 C 299.227 179.454,299.096 180.264,298.970 180.667 C 298.752 181.360,298.765 181.361,299.195 180.690 C 299.446 180.299,299.577 179.489,299.486 178.890 L 299.320 177.800 299.260 178.867 M193.900 178.682 C 194.395 178.778,195.205 178.778,195.700 178.682 C 196.195 178.587,195.790 178.509,194.800 178.509 C 193.810 178.509,193.405 178.587,193.900 178.682 M98.184 187.627 C 98.039 187.861,98.028 188.161,98.160 188.293 C 98.292 188.425,98.400 188.302,98.400 188.020 C 98.400 187.704,98.707 187.587,99.201 187.716 C 99.641 187.831,99.900 187.762,99.777 187.563 C 99.470 187.067,98.506 187.105,98.184 187.627 M98.006 190.233 C 98.009 190.875,98.184 191.670,98.395 192.000 C 98.655 192.409,98.699 192.090,98.532 191.000 C 98.229 189.023,97.998 188.686,98.006 190.233 M262.185 268.900 L 260.200 271.000 262.300 269.015 C 263.455 267.923,264.400 266.978,264.400 266.915 C 264.400 266.617,264.029 266.949,262.185 268.900 M102.400 289.221 C 101.970 289.514,102.254 289.554,103.400 289.362 C 105.384 289.030,105.704 288.798,104.167 288.806 C 103.525 288.809,102.730 288.996,102.400 289.221 " stroke="none" fill="#5cacec" fill-rule="evenodd"></path><path id="path8" d="" stroke="none" fill="#54b4f0" fill-rule="evenodd"></path></g></svg>