<svg width="600" height="400" xmlns="http://www.w3.org/2000/svg">
 <g>
  <title>Layer 1</title>
  <rect x="162.676" y="108.15057" width="274.648" height="27.465" rx="12.5" ry="12.5" fill=" #b3b3b3" id="svg_1"/>
  <g id="svg_9">
   <text x="8" y="388.54859" fill=" #b3b3b3" font-family=" Arial, sans-serif" font-size=" 31.2px" font-weight="600" id="svg_2">9:00 AM</text>
   <g id="svg_8">
    <path d="m481.24019,347.59114l0,7.704l2.017,0l0,-7.704l-2.017,0zm-8.914,2.197l-1.715,1.069l4.074,6.534l1.715,-1.069l-4.074,-6.534zm19.965,0.202l-3.044,5.506c-1.928,0.428 -3.728,1.203 -5.325,2.259c-0.547,-0.077 -1.107,-0.123 -1.674,-0.123c-6.889,0 -12.463,5.612 -12.463,12.525c0,1.257 0.198,2.469 0.545,3.61c-0.632,0.796 -1.146,1.704 -1.492,2.682l-0.445,-0.685l-6.493,4.093l0.222,0.363c-1.533,1.504 -2.481,3.588 -2.481,5.889c0,2.272 1.052,4.155 2.643,5.222c1.589,1.068 3.574,1.432 5.624,1.432l13.211,0l2.016,0l5.889,0l11.515,0l10.568,0c7.195,0 13.068,-5.871 13.068,-13.067c0,-7.198 -5.872,-13.048 -13.068,-13.048c-1.038,0 -2.016,0.17 -2.965,0.403c-1.85,-6.846 -8.009,-11.939 -15.427,-11.939c-0.322,0 -0.631,0.023 -0.948,0.041l2.298,-4.175l-1.774,-0.988zm-28.738,7.341l-0.988,1.774l6.716,3.731l0.969,-1.774l-6.697,-3.731zm29.162,0.867c6.509,0 11.822,4.761 12.805,10.991l0.302,1.875l1.775,-0.665c1.119,-0.425 2.284,-0.686 3.51,-0.686c5.536,0 10.002,4.447 10.002,9.983c0,5.536 -4.466,10.003 -10.002,10.003l-10.568,0l-11.515,0l-21.116,0c-1.661,0 -3.069,-0.342 -3.91,-0.908c-0.842,-0.565 -1.291,-1.24 -1.291,-2.682c0,-2.88 2.32,-5.183 5.201,-5.183c0.479,0 0.961,0.082 1.493,0.242l1.977,0.604l0,-2.076c0,-0.187 0.005,-0.296 0,-0.323c0.086,-3.421 2.847,-6.131 6.293,-6.131c-0.05,0 0.075,0.017 0.423,0.041l1.714,0.121l-0.08,-1.714c-0.019,-0.421 -0.041,-0.562 -0.041,-0.465c0,-7.213 5.809,-13.027 13.028,-13.027zm-33.074,10.365l0,2.017l7.684,0l0,-2.017l-7.684,0z" fill=" #b3b3b3" id="svg_5"/>
    <g id="svg_7">
     <text x="529.47042" y="370.0914" fill=" #b3b3b3" font-family=" Arial, sans-serif" font-size=" 27.8px" font-weight="500" id="svg_3">12°C</text>
     <text x="538.67278" y="391.97713" fill=" #b3b3b3" font-family=" Arial, sans-serif" font-size=" 17.1px" font-weight="500" id="svg_4">Berlin</text>
    </g>
   </g>
  </g>
 </g>

</svg>